<svg width="46" height="44" viewBox="0 0 46 44" fill="none" xmlns="http://www.w3.org/2000/svg">
<rect x="0.417969" y="0.948242" width="44.6953" height="42.1413" rx="2.55402" fill="#6A54DF"/>
<path d="M7.25734 13.7364V20.8877H6.39136V13.7364H7.25734ZM9.70598 17.6612V20.8877H8.88191V15.5243H9.67804V16.3623H9.74788C9.87358 16.0899 10.0645 15.8711 10.3205 15.7058C10.5766 15.5382 10.9072 15.4544 11.3122 15.4544C11.6754 15.4544 11.9931 15.5289 12.2655 15.6779C12.5378 15.8246 12.7497 16.048 12.901 16.3483C13.0523 16.6463 13.128 17.0234 13.128 17.4797V20.8877H12.3039V17.5355C12.3039 17.1142 12.1945 16.786 11.9757 16.5508C11.7568 16.3134 11.4565 16.1947 11.0748 16.1947C10.8117 16.1947 10.5766 16.2517 10.3694 16.3658C10.1646 16.4798 10.0028 16.6463 9.88406 16.8651C9.76534 17.0839 9.70598 17.3493 9.70598 17.6612ZM17.0222 15.5243V16.2226H14.131V15.5243H17.0222ZM14.997 20.8877V14.784C14.997 14.4767 15.0691 14.2206 15.2135 14.0158C15.3578 13.8109 15.5452 13.6573 15.7756 13.5549C16.0061 13.4524 16.2494 13.4012 16.5054 13.4012C16.708 13.4012 16.8732 13.4175 17.0013 13.4501C17.1293 13.4827 17.2247 13.513 17.2876 13.5409L17.0502 14.2532C17.0083 14.2393 16.9501 14.2218 16.8756 14.2009C16.8034 14.1799 16.708 14.1694 16.5892 14.1694C16.3169 14.1694 16.1202 14.2381 15.9991 14.3754C15.8804 14.5128 15.821 14.7142 15.821 14.9795V20.8877H14.997ZM20.1352 20.9994C19.651 20.9994 19.2261 20.8842 18.8607 20.6537C18.4975 20.4233 18.2135 20.1009 18.0087 19.6865C17.8061 19.2721 17.7049 18.7879 17.7049 18.2339C17.7049 17.6752 17.8061 17.1875 18.0087 16.7708C18.2135 16.3541 18.4975 16.0306 18.8607 15.8001C19.2261 15.5696 19.651 15.4544 20.1352 15.4544C20.6194 15.4544 21.0431 15.5696 21.4062 15.8001C21.7717 16.0306 22.0557 16.3541 22.2582 16.7708C22.4631 17.1875 22.5655 17.6752 22.5655 18.2339C22.5655 18.7879 22.4631 19.2721 22.2582 19.6865C22.0557 20.1009 21.7717 20.4233 21.4062 20.6537C21.0431 20.8842 20.6194 20.9994 20.1352 20.9994ZM20.1352 20.2592C20.503 20.2592 20.8056 20.1649 21.0431 19.9763C21.2805 19.7878 21.4563 19.5399 21.5703 19.2326C21.6844 18.9253 21.7414 18.5924 21.7414 18.2339C21.7414 17.8754 21.6844 17.5414 21.5703 17.2318C21.4563 16.9221 21.2805 16.6719 21.0431 16.481C20.8056 16.2901 20.503 16.1947 20.1352 16.1947C19.7674 16.1947 19.4648 16.2901 19.2273 16.481C18.9899 16.6719 18.8141 16.9221 18.7 17.2318C18.586 17.5414 18.5289 17.8754 18.5289 18.2339C18.5289 18.5924 18.586 18.9253 18.7 19.2326C18.8141 19.5399 18.9899 19.7878 19.2273 19.9763C19.4648 20.1649 19.7674 20.2592 20.1352 20.2592ZM27.6225 16.7254L26.8823 16.935C26.8357 16.8116 26.767 16.6917 26.6762 16.5753C26.5878 16.4566 26.4667 16.3588 26.3131 16.282C26.1595 16.2052 25.9627 16.1667 25.723 16.1667C25.3947 16.1667 25.1212 16.2424 24.9024 16.3937C24.6859 16.5427 24.5777 16.7324 24.5777 16.9629C24.5777 17.1677 24.6521 17.3295 24.8011 17.4482C24.9501 17.567 25.1829 17.6659 25.4995 17.7451L26.2956 17.9406C26.7752 18.057 27.1325 18.2351 27.3676 18.4748C27.6027 18.7123 27.7203 19.0184 27.7203 19.3932C27.7203 19.7005 27.6318 19.9752 27.4549 20.2173C27.2803 20.4594 27.0359 20.6503 26.7216 20.7899C26.4074 20.9296 26.0419 20.9994 25.6252 20.9994C25.0781 20.9994 24.6254 20.8807 24.2669 20.6433C23.9084 20.4058 23.6814 20.059 23.586 19.6027L24.3681 19.4072C24.4426 19.6958 24.5835 19.9123 24.7907 20.0566C25.0002 20.201 25.2737 20.2731 25.6112 20.2731C25.9953 20.2731 26.3003 20.1917 26.5261 20.0287C26.7542 19.8634 26.8683 19.6656 26.8683 19.4351C26.8683 19.2489 26.8031 19.0929 26.6727 18.9672C26.5424 18.8392 26.3422 18.7437 26.0722 18.6809L25.1782 18.4714C24.6871 18.355 24.3262 18.1745 24.0958 17.9301C23.8677 17.6834 23.7536 17.3749 23.7536 17.0048C23.7536 16.7022 23.8386 16.4345 24.0085 16.2017C24.1808 15.9689 24.4147 15.7861 24.7103 15.6535C25.0083 15.5208 25.3459 15.4544 25.723 15.4544C26.2537 15.4544 26.6704 15.5708 26.973 15.8036C27.278 16.0364 27.4945 16.3437 27.6225 16.7254ZM29.4915 22.899C29.3519 22.899 29.2273 22.8873 29.1179 22.8641C29.0085 22.8431 28.9328 22.8222 28.8909 22.8012L29.1004 22.0749C29.3006 22.1261 29.4776 22.1448 29.6312 22.1308C29.7848 22.1168 29.921 22.0481 30.0397 21.9248C30.1608 21.8037 30.2714 21.607 30.3715 21.3346L30.5251 20.9156L28.5417 15.5243H29.4357L30.9162 19.7982H30.9721L32.4526 15.5243H33.3465L31.0698 21.6699C30.9674 21.9469 30.8405 22.1762 30.6892 22.3578C30.5379 22.5417 30.3622 22.6778 30.162 22.7663C29.9641 22.8548 29.7406 22.899 29.4915 22.899ZM38.2333 16.7254L37.493 16.935C37.4465 16.8116 37.3778 16.6917 37.287 16.5753C37.1986 16.4566 37.0775 16.3588 36.9239 16.282C36.7702 16.2052 36.5735 16.1667 36.3338 16.1667C36.0055 16.1667 35.732 16.2424 35.5132 16.3937C35.2967 16.5427 35.1884 16.7324 35.1884 16.9629C35.1884 17.1677 35.2629 17.3295 35.4119 17.4482C35.5609 17.567 35.7937 17.6659 36.1103 17.7451L36.9064 17.9406C37.386 18.057 37.7433 18.2351 37.9784 18.4748C38.2135 18.7123 38.3311 19.0184 38.3311 19.3932C38.3311 19.7005 38.2426 19.9752 38.0657 20.2173C37.8911 20.4594 37.6467 20.6503 37.3324 20.7899C37.0182 20.9296 36.6527 20.9994 36.236 20.9994C35.6889 20.9994 35.2362 20.8807 34.8777 20.6433C34.5192 20.4058 34.2922 20.059 34.1968 19.6027L34.9789 19.4072C35.0534 19.6958 35.1943 19.9123 35.4014 20.0566C35.6109 20.201 35.8845 20.2731 36.222 20.2731C36.6061 20.2731 36.9111 20.1917 37.1369 20.0287C37.365 19.8634 37.4791 19.6656 37.4791 19.4351C37.4791 19.2489 37.4139 19.0929 37.2835 18.9672C37.1532 18.8392 36.953 18.7437 36.6829 18.6809L35.789 18.4714C35.2978 18.355 34.937 18.1745 34.7066 17.9301C34.4784 17.6834 34.3644 17.3749 34.3644 17.0048C34.3644 16.7022 34.4493 16.4345 34.6193 16.2017C34.7915 15.9689 35.0255 15.7861 35.3211 15.6535C35.6191 15.5208 35.9566 15.4544 36.3338 15.4544C36.8645 15.4544 37.2812 15.5708 37.5838 15.8036C37.8888 16.0364 38.1053 16.3437 38.2333 16.7254Z" fill="white"/>
<path d="M6.01547 30.5732V25.6045H7.91756C8.27663 25.6045 8.57505 25.6611 8.81281 25.7743C9.05219 25.8859 9.23091 26.0388 9.34898 26.2329C9.46867 26.427 9.52852 26.6469 9.52852 26.8928C9.52852 27.095 9.4897 27.268 9.41206 27.412C9.33443 27.5543 9.2301 27.67 9.09909 27.7589C8.96808 27.8479 8.8217 27.9118 8.65996 27.9506V27.9991C8.83626 28.0088 9.00528 28.063 9.16702 28.1617C9.33038 28.2587 9.46382 28.3962 9.56734 28.5741C9.67085 28.752 9.72261 28.9671 9.72261 29.2195C9.72261 29.4766 9.66034 29.7079 9.5358 29.9133C9.41125 30.1171 9.22363 30.2781 8.97293 30.3961C8.72223 30.5142 8.40683 30.5732 8.02674 30.5732H6.01547ZM6.91557 29.8211H7.8836C8.21032 29.8211 8.44565 29.7589 8.5896 29.6343C8.73517 29.5082 8.80795 29.3464 8.80795 29.1491C8.80795 29.0019 8.77156 28.8693 8.69878 28.7512C8.62599 28.6315 8.52248 28.5377 8.38823 28.4698C8.25399 28.4002 8.09386 28.3655 7.90786 28.3655H6.91557V29.8211ZM6.91557 27.7177H7.80596C7.96123 27.7177 8.10114 27.6894 8.22568 27.6328C8.35022 27.5745 8.44808 27.4929 8.51924 27.3877C8.59203 27.281 8.62842 27.1548 8.62842 27.0092C8.62842 26.8168 8.56049 26.6583 8.42463 26.5337C8.29038 26.4092 8.09063 26.3469 7.82537 26.3469H6.91557V27.7177ZM10.5056 30.5732V25.6045H12.3689C12.7506 25.6045 13.0709 25.6757 13.3297 25.818C13.5901 25.9603 13.7866 26.1561 13.9192 26.4051C14.0535 26.6526 14.1206 26.934 14.1206 27.2494C14.1206 27.5681 14.0535 27.8511 13.9192 28.0986C13.785 28.346 13.5868 28.5409 13.3248 28.6833C13.0628 28.824 12.7401 28.8944 12.3568 28.8944H11.1219V28.1544H12.2355C12.4587 28.1544 12.6415 28.1156 12.7838 28.0379C12.9261 27.9603 13.0313 27.8535 13.0992 27.7177C13.1687 27.5818 13.2035 27.4257 13.2035 27.2494C13.2035 27.0731 13.1687 26.9179 13.0992 26.7836C13.0313 26.6494 12.9253 26.545 12.7814 26.4706C12.639 26.3946 12.4555 26.3566 12.2306 26.3566H11.4057V30.5732H10.5056ZM14.9024 25.6045H16.0039L17.479 29.2049H17.5372L19.0123 25.6045H20.1138V30.5732H19.2501V27.1597H19.204L17.8308 30.5587H17.1854L15.8122 27.1524H15.7661V30.5732H14.9024V25.6045Z" fill="#EAEAEA"/>
</svg>
