<svg width="1440" height="785" viewBox="0 0 1440 785" fill="none" xmlns="http://www.w3.org/2000/svg">
<g clip-path="url(#clip0_55_489)">
<g clip-path="url(#clip1_55_489)">
<rect width="1440" height="785" fill="#4221D4"/>
<rect width="466" height="785" fill="#C791F2" fill-opacity="0.3"/>
<g clip-path="url(#clip2_55_489)">
<line x1="480.425" y1="455.487" x2="549.369" y2="397.636" stroke="#4CC082" stroke-width="10" stroke-linecap="round"/>
<line x1="363.915" y1="455.983" x2="433.424" y2="397.657" stroke="#8D55E9" stroke-width="9.26135" stroke-linecap="round"/>
<line x1="172.114" y1="486.803" x2="247.3" y2="423.715" stroke="#FF5761" stroke-width="1.85227" stroke-linecap="round"/>
<line x1="215.22" y1="664.046" x2="284.164" y2="606.195" stroke="#EC6C5A" stroke-width="10" stroke-linecap="round"/>
<line x1="644.758" y1="522.34" x2="709.872" y2="467.704" stroke="#8D55E9" stroke-width="15" stroke-linecap="round"/>
<line x1="359.173" y1="387.707" x2="434.358" y2="324.619" stroke="#8D55E9" stroke-width="1.85227" stroke-linecap="round"/>
<line x1="320.454" y1="505.459" x2="395.64" y2="442.371" stroke="white" stroke-width="1.85227" stroke-linecap="round"/>
<line x1="560.533" y1="314.283" x2="631.462" y2="254.767" stroke="#FF5761" stroke-width="7.40908" stroke-linecap="round"/>
<line x1="443.97" y1="736.413" x2="514.899" y2="676.896" stroke="#4CC082" stroke-width="7.40908" stroke-linecap="round"/>
<line x1="425.353" y1="642.375" x2="493.444" y2="585.24" stroke="#EC6C5A" stroke-width="11.1136" stroke-linecap="round"/>
<line x1="479.896" y1="503.565" x2="538.055" y2="454.765" stroke="#EC6C5A" stroke-width="24.0795" stroke-linecap="round"/>
<line x1="604.973" y1="706.525" x2="670.087" y2="651.888" stroke="#F4DC5A" stroke-width="15" stroke-linecap="round"/>
<line x1="295.768" y1="771.63" x2="360.882" y2="716.993" stroke="#FF5761" stroke-width="15" stroke-linecap="round"/>
<line x1="526.799" y1="225.107" x2="591.913" y2="170.47" stroke="#8D55E9" stroke-width="15" stroke-linecap="round"/>
</g>
<g filter="url(#filter0_f_55_489)">
<path d="M1452.47 275.253C1452.47 476.424 1271.71 639.506 1048.73 639.506C825.758 639.506 645 476.424 645 275.253C645 74.0815 825.758 -89 1048.73 -89C1271.71 -89 1452.47 74.0815 1452.47 275.253Z" fill="#E5F1FF"/>
</g>
</g>
</g>
<defs>
<filter id="filter0_f_55_489" x="-366.247" y="-1100.25" width="2829.96" height="2751" filterUnits="userSpaceOnUse" color-interpolation-filters="sRGB">
<feFlood flood-opacity="0" result="BackgroundImageFix"/>
<feBlend mode="normal" in="SourceGraphic" in2="BackgroundImageFix" result="shape"/>
<feGaussianBlur stdDeviation="505.624" result="effect1_foregroundBlur_55_489"/>
</filter>
<clipPath id="clip0_55_489">
<rect width="1440" height="785" fill="white"/>
</clipPath>
<clipPath id="clip1_55_489">
<rect width="1440" height="785" fill="white"/>
</clipPath>
<clipPath id="clip2_55_489">
<rect width="556" height="639.196" fill="white" transform="translate(172 143)"/>
</clipPath>
</defs>
</svg>
