<svg width="32" height="32" viewBox="0 0 32 32" fill="none" xmlns="http://www.w3.org/2000/svg">
<g clip-path="url(#clip0_16_5062)">
<path d="M4.69072 2.67491C3.03701 2.97342 1.49077 4.24504 0.893766 5.80322C0.517653 6.77634 0.523623 6.59127 0.541533 14.018C0.565413 21.6477 0.523623 21.003 1.0669 22.1313C1.71763 23.4805 2.93552 24.4716 4.41013 24.8596C4.91161 24.991 4.98325 24.991 9.86078 25.0089L14.798 25.0328V26.0477V27.0566H13.6936C12.4936 27.0566 12.3981 27.0745 12.0996 27.3969C11.6399 27.8864 11.807 28.6864 12.4339 28.973C12.6607 29.0745 12.8876 29.0864 15.8129 29.0864C18.7383 29.0864 18.9651 29.0745 19.192 28.973C19.8129 28.6924 19.98 27.9402 19.5382 27.4148C19.2517 27.0805 19.1502 27.0566 17.9383 27.0566H16.8338L16.8159 25.3372L16.798 23.6119L16.6308 23.397C16.5413 23.2776 16.404 23.1462 16.3323 23.1044C16.2308 23.0447 14.9652 23.0209 10.6488 22.997C5.10265 22.9671 5.09668 22.9612 4.70266 22.8298C3.67581 22.4895 2.89373 21.6358 2.64896 20.603C2.51762 20.0299 2.51762 7.57633 2.64896 7.0032C2.92358 5.84501 3.84894 4.93756 5.00116 4.69279C5.5922 4.56742 26.0337 4.56742 26.6247 4.69279C27.7709 4.93756 28.7023 5.85695 28.9769 7.00917C29.1082 7.57633 29.1082 20.0358 28.9769 20.603C28.7321 21.6418 27.95 22.4835 26.9172 22.8298C26.5411 22.9612 26.4396 22.9612 22.5471 22.997C18.6487 23.0268 18.5651 23.0268 18.4039 23.1522C18.1412 23.3432 18.0099 23.5582 17.9801 23.8507C17.9204 24.3761 18.2248 24.8298 18.7442 24.9671C18.9174 25.0149 20.1472 25.0268 22.8456 25.0089C26.5948 24.991 26.7202 24.985 27.2157 24.8596C29.2157 24.3402 30.7142 22.6925 31.0366 20.6687C31.0724 20.4179 31.0963 17.9224 31.0963 13.7434C31.0963 7.60618 31.0903 7.17036 30.9828 6.66888C30.7679 5.61218 30.2903 4.75846 29.4963 4.00027C28.7381 3.27192 27.8903 2.84805 26.8814 2.66894C26.1292 2.5376 5.4131 2.54357 4.69072 2.67491Z" fill="#1F2329"/>
<path d="M10.9361 9.05176C9.82564 9.32041 8.8585 10.3353 8.65551 11.4398C8.61372 11.6666 8.58984 12.9084 8.58984 14.8427C8.58984 17.6904 8.60178 17.9113 8.70327 18.1382C8.85253 18.4665 9.12715 18.6576 9.50923 18.6874C9.90326 18.7173 10.1958 18.5979 10.4167 18.3053C10.5779 18.1024 10.5898 18.0367 10.6077 17.4934L10.6316 16.9083H11.6943H12.7569L12.7808 17.4994C12.7987 18.1561 12.8644 18.3053 13.2525 18.568C13.4256 18.6874 13.5151 18.7053 13.8136 18.6874C14.2554 18.6576 14.5241 18.4904 14.6853 18.1382C14.7868 17.9113 14.7987 17.6904 14.7987 14.8487C14.7987 11.5055 14.7808 11.3144 14.4465 10.6517C13.8196 9.40399 12.3152 8.71744 10.9361 9.05176ZM12.0943 11.0637C12.345 11.1532 12.6435 11.4696 12.7092 11.7144C12.739 11.8278 12.7689 12.586 12.7689 13.398V14.8785H11.6943H10.6197V13.392C10.6197 11.8099 10.6435 11.6249 10.9122 11.3323C11.1928 11.0219 11.6883 10.9084 12.0943 11.0637Z" fill="#1F2329"/>
<path d="M17.3902 9.0501C17.2887 9.09786 17.1275 9.23517 17.032 9.36054L16.8589 9.58143L16.841 13.7246C16.829 17.8261 16.829 17.8738 16.9484 18.0888C17.0201 18.2141 17.1693 18.3813 17.2887 18.4589L17.5037 18.6082L19.235 18.6261C20.8111 18.644 21.0021 18.632 21.4439 18.5186C22.2499 18.3156 22.9066 17.8201 23.3603 17.0679C23.7185 16.4649 23.7543 16.1724 23.7543 13.7605C23.7543 12.053 23.7364 11.5515 23.6648 11.2769C23.3782 10.1784 22.5543 9.33666 21.4797 9.05607C21.026 8.9307 17.6649 8.9307 17.3902 9.0501ZM21.1872 11.1336C21.3663 11.2292 21.4917 11.3545 21.5872 11.5336C21.7245 11.7904 21.7245 11.8202 21.7245 13.7784C21.7245 15.838 21.7125 15.9754 21.4678 16.244C21.1872 16.5485 20.9424 16.6082 19.8618 16.6082H18.8589V13.8023V10.9963H19.8917C20.8588 10.9963 20.9484 11.0083 21.1872 11.1336Z" fill="#1F2329"/>
</g>
<defs>
<clipPath id="clip0_16_5062">
<rect width="30.5667" height="30.5667" fill="white" transform="translate(0.529297 0.55127)"/>
</clipPath>
</defs>
</svg>
