<svg width="19" height="19" viewBox="0 0 19 19" fill="none" xmlns="http://www.w3.org/2000/svg">
<path d="M12.5922 9.27197C12.5922 9.83874 12.4241 10.3928 12.1092 10.864C11.7944 11.3353 11.3468 11.7026 10.8232 11.9195C10.2996 12.1364 9.72338 12.1931 9.16751 12.0825C8.61163 11.972 8.10102 11.699 7.70026 11.2983C7.29949 10.8975 7.02657 10.3869 6.916 9.83103C6.80543 9.27515 6.86218 8.69897 7.07907 8.17534C7.29596 7.65172 7.66326 7.20417 8.13451 6.88929C8.60576 6.57441 9.15979 6.40635 9.72656 6.40635C10.4858 6.40871 11.2134 6.71138 11.7503 7.24828C12.2872 7.78518 12.5898 8.51269 12.5922 9.27197ZM18.6816 5.33174V13.2122C18.6816 14.5422 18.1533 15.8178 17.2128 16.7582C16.2724 17.6987 14.9968 18.2271 13.6668 18.2271H5.78633C4.45631 18.2271 3.18076 17.6987 2.2403 16.7582C1.29983 15.8178 0.771484 14.5422 0.771484 13.2122V5.33174C0.771484 4.00172 1.29983 2.72617 2.2403 1.78571C3.18076 0.845243 4.45631 0.316895 5.78633 0.316895H13.6668C14.9968 0.316895 16.2724 0.845243 17.2128 1.78571C18.1533 2.72617 18.6816 4.00172 18.6816 5.33174ZM14.025 9.27197C14.025 8.42182 13.7729 7.59076 13.3006 6.88389C12.8283 6.17701 12.1569 5.62607 11.3715 5.30073C10.5861 4.9754 9.72179 4.89027 8.88798 5.05613C8.05416 5.22198 7.28826 5.63137 6.68711 6.23252C6.08596 6.83367 5.67657 7.59957 5.51072 8.43339C5.34486 9.2672 5.42999 10.1315 5.75532 10.9169C6.08066 11.7023 6.6316 12.3737 7.33848 12.846C8.04535 13.3183 8.87641 13.5704 9.72656 13.5704C10.8666 13.5704 11.9599 13.1175 12.766 12.3114C13.5721 11.5053 14.025 10.412 14.025 9.27197ZM15.4578 4.61533C15.4578 4.40279 15.3948 4.19503 15.2767 4.01831C15.1586 3.84159 14.9908 3.70386 14.7944 3.62252C14.5981 3.54119 14.382 3.51991 14.1736 3.56137C13.9651 3.60283 13.7736 3.70518 13.6233 3.85547C13.4731 4.00575 13.3707 4.19723 13.3292 4.40569C13.2878 4.61414 13.3091 4.83021 13.3904 5.02657C13.4717 5.22293 13.6095 5.39076 13.7862 5.50884C13.9629 5.62692 14.1707 5.68994 14.3832 5.68994C14.6682 5.68994 14.9415 5.57672 15.1431 5.3752C15.3446 5.17367 15.4578 4.90034 15.4578 4.61533Z" fill="white"/>
</svg>
