<svg width="24" height="23" viewBox="0 0 24 23" fill="none" xmlns="http://www.w3.org/2000/svg">
<path d="M3.74348 0.127831C2.61514 0.378573 1.58829 1.22035 1.09278 2.30093C0.734577 3.07704 0.740547 2.98152 0.758457 9.13067C0.782337 15.3634 0.752487 14.9157 1.17039 15.7634C1.63008 16.6947 2.56738 17.4529 3.61214 17.7514C3.97632 17.8529 4.35243 17.8589 9.67174 17.8589H15.3433L15.791 17.7216C16.4478 17.5186 16.9612 17.2082 17.4388 16.7305C17.9164 16.2529 18.2268 15.7395 18.4298 15.0828L18.5671 14.6351V8.96351C18.5671 2.62928 18.591 2.97555 18.1432 2.12183C17.6537 1.1905 16.8657 0.539765 15.791 0.181561C15.4806 0.0741005 15.1284 0.0681304 9.79115 0.0561903C5.16436 0.0502203 4.04796 0.0621604 3.74348 0.127831ZM9.98816 5.18447C10.3702 5.27999 10.7881 5.69789 10.8837 6.07997C10.9255 6.23519 10.9553 6.65907 10.9553 7.01727V7.67995H11.7195C12.5851 7.67995 12.8299 7.75756 13.1463 8.11576C13.6836 8.72471 13.5165 9.66797 12.806 10.068C12.5672 10.1993 12.4598 10.2172 11.7493 10.2351L10.9672 10.259L10.9434 11.0411C10.9255 11.7515 10.9075 11.859 10.7762 12.0978C10.5493 12.4978 10.2031 12.7127 9.73742 12.7426C9.31354 12.7724 9.02101 12.659 8.73445 12.3545C8.44788 12.056 8.38818 11.8172 8.38818 10.9933V10.2471H7.72551C6.83597 10.2471 6.57926 10.1754 6.233 9.82917C5.60614 9.20231 5.75539 8.22919 6.54344 7.83517C6.83597 7.69189 6.91955 7.67995 7.62402 7.67995H8.38818V6.91578C8.38818 6.21131 8.40012 6.12773 8.54341 5.8352C8.71057 5.50088 9.01504 5.25014 9.35533 5.17253C9.63592 5.10685 9.67771 5.10685 9.98816 5.18447Z" fill="#1E1E1E"/>
<path d="M21.8148 4.02676C21.5819 4.14616 21.4446 4.27153 21.3133 4.48645L21.1342 4.77302L21.1043 11.0774L21.0745 17.3818L20.9431 17.7698C20.5491 18.9101 19.6178 19.8414 18.4775 20.2355L18.0895 20.3668L11.7911 20.3966L5.49265 20.4265L5.21206 20.5937C4.71058 20.8862 4.47177 21.4892 4.627 22.0563C4.71655 22.4085 5.11057 22.7966 5.4628 22.8981C5.67175 22.9518 7.15233 22.9638 12 22.9518L18.2686 22.9339L18.8536 22.7727C21.1581 22.1399 22.8476 20.4563 23.4804 18.1459L23.6416 17.5609L23.6595 11.2923C23.6715 6.44463 23.6595 4.96406 23.6058 4.75511C23.5103 4.42078 23.1342 4.03273 22.7998 3.93124C22.4178 3.81781 22.161 3.84169 21.8148 4.02676Z" fill="#1E1E1E"/>
</svg>
