<svg width="33" height="33" viewBox="0 0 33 33" fill="none" xmlns="http://www.w3.org/2000/svg">
<g clip-path="url(#clip0_57_935)">
<path fill-rule="evenodd" clip-rule="evenodd" d="M28.875 2.587H4.125C3.57799 2.587 3.05339 2.80688 2.66659 3.19827C2.2798 3.58966 2.0625 4.1205 2.0625 4.674V21.37C2.0625 21.9235 2.2798 22.4544 2.66659 22.8458C3.05339 23.2371 3.57799 23.457 4.125 23.457H9.28125C9.92164 23.457 10.5532 23.6079 11.126 23.8977C11.6988 24.1875 12.197 24.6082 12.5813 25.1266L16.5 30.413L20.4187 25.1266C20.803 24.6082 21.3012 24.1875 21.874 23.8977C22.4468 23.6079 23.0784 23.457 23.7188 23.457H28.875C29.422 23.457 29.9466 23.2371 30.3334 22.8458C30.7202 22.4544 30.9375 21.9235 30.9375 21.37V4.674C30.9375 4.1205 30.7202 3.58966 30.3334 3.19827C29.9466 2.80688 29.422 2.587 28.875 2.587ZM4.125 0.5C3.03098 0.5 1.98177 0.93976 1.20818 1.72254C0.434597 2.50531 0 3.56699 0 4.674L0 21.37C0 22.477 0.434597 23.5387 1.20818 24.3215C1.98177 25.1043 3.03098 25.544 4.125 25.544H9.28125C9.60144 25.544 9.91724 25.6195 10.2036 25.7644C10.49 25.9092 10.7391 26.1196 10.9313 26.3788L14.85 31.6652C15.0421 31.9244 15.2912 32.1348 15.5776 32.2797C15.864 32.4246 16.1798 32.5 16.5 32.5C16.8202 32.5 17.136 32.4246 17.4224 32.2797C17.7088 32.1348 17.9579 31.9244 18.15 31.6652L22.0688 26.3788C22.2609 26.1196 22.51 25.9092 22.7964 25.7644C23.0828 25.6195 23.3986 25.544 23.7188 25.544H28.875C29.969 25.544 31.0182 25.1043 31.7918 24.3215C32.5654 23.5387 33 22.477 33 21.37V4.674C33 3.56699 32.5654 2.50531 31.7918 1.72254C31.0182 0.93976 29.969 0.5 28.875 0.5L4.125 0.5Z" fill="#2C9DDD"/>
<path fill-rule="evenodd" clip-rule="evenodd" d="M14.5214 11.0287C14.1071 10.4228 13.4945 9.95953 12.7758 9.70855C12.0571 9.45757 11.2711 9.43242 10.5358 9.6369C9.80058 9.84137 9.15588 10.2644 8.6986 10.8424C8.24133 11.4205 7.9962 12.1222 8.00004 12.8423C8.00043 13.4386 8.17132 14.0238 8.49487 14.5369C8.81843 15.0499 9.28277 15.472 9.83938 15.759C10.396 16.0459 11.0245 16.1873 11.6591 16.1682C12.2938 16.1491 12.9113 15.9704 13.4473 15.6506C13.1686 16.4276 12.6497 17.2565 11.7946 18.0874C11.631 18.2463 11.5413 18.4597 11.5453 18.6807C11.5493 18.9017 11.6466 19.1122 11.8159 19.2658C11.9851 19.4194 12.2124 19.5036 12.4477 19.4999C12.6831 19.4961 12.9072 19.4047 13.0708 19.2458C16.2315 16.1699 15.821 12.8263 14.5214 11.0327V11.0287ZM23.0294 11.0287C22.6151 10.4228 22.0025 9.95953 21.2838 9.70855C20.5651 9.45757 19.779 9.43242 19.0438 9.6369C18.3086 9.84137 17.6639 10.2644 17.2066 10.8424C16.7493 11.4205 16.5042 12.1222 16.508 12.8423C16.5084 13.4386 16.6793 14.0238 17.0029 14.5369C17.3264 15.0499 17.7907 15.472 18.3474 15.759C18.904 16.0459 19.5324 16.1873 20.1671 16.1682C20.8018 16.1491 21.4193 15.9704 21.9553 15.6506C21.6766 16.4276 21.1576 17.2565 20.3026 18.0874C20.139 18.2463 20.0493 18.4597 20.0533 18.6807C20.0573 18.9017 20.1546 19.1122 20.3239 19.2658C20.4931 19.4194 20.7204 19.5036 20.9557 19.4999C21.1911 19.4961 21.4152 19.4047 21.5788 19.2458C24.7395 16.1699 24.329 12.8263 23.0294 11.0327V11.0287Z" fill="#2C9DDD"/>
</g>
<defs>
<clipPath id="clip0_57_935">
<rect width="32" height="32" fill="white" transform="translate(0.5 0.5)"/>
</clipPath>
</defs>
</svg>
