<svg width="33" height="33" viewBox="0 0 33 33" fill="none" xmlns="http://www.w3.org/2000/svg">
<g clip-path="url(#clip0_57_927)">
<path d="M1 12C1 8.95001 2.2116 6.02494 4.36827 3.86827C6.52494 1.7116 9.45001 0.5 12.5 0.5C15.55 0.5 18.4751 1.7116 20.6317 3.86827C22.7884 6.02494 24 8.95001 24 12C24 15.05 22.7884 17.9751 20.6317 20.1317C18.4751 22.2884 15.55 23.5 12.5 23.5C9.45001 23.5 6.52494 22.2884 4.36827 20.1317C2.2116 17.9751 1 15.05 1 12H1Z" fill="#2C9DDD"/>
<path d="M26.1158 10.4167H29.125C29.3792 10.4167 29.6229 10.5176 29.8026 10.6974C29.9824 10.8771 30.0833 11.1208 30.0833 11.375V28.625C30.0833 28.8792 29.9824 29.1229 29.8026 29.3026C29.6229 29.4824 29.3792 29.5833 29.125 29.5833H11.875C11.6208 29.5833 11.3771 29.4824 11.1974 29.3026C11.0176 29.1229 10.9167 28.8792 10.9167 28.625V25.6158C10.2683 25.5226 9.62766 25.3816 9 25.1942V28.625C9 29.3875 9.3029 30.1188 9.84207 30.6579C10.3812 31.1971 11.1125 31.5 11.875 31.5H29.125C29.8875 31.5 30.6188 31.1971 31.1579 30.6579C31.6971 30.1188 32 29.3875 32 28.625V11.375C32 10.6125 31.6971 9.88123 31.1579 9.34207C30.6188 8.8029 29.8875 8.5 29.125 8.5H25.6942C25.8801 9.121 26.02 9.76117 26.1158 10.4167Z" fill="#2C9DDD"/>
</g>
<defs>
<clipPath id="clip0_57_927">
<rect width="32" height="32" fill="white" transform="translate(0.5 0.5)"/>
</clipPath>
</defs>
</svg>
