<svg width="18" height="18" viewBox="0 0 12 12" fill="none" xmlns="http://www.w3.org/2000/svg">
<path d="M7.1815 2.03948C7.1815 2.03948 7.239 3.02448 8.108 3.89298C8.977 4.76198 9.9615 4.81998 9.9615 4.81998L10.425 4.35648C10.7937 3.98777 11.0009 3.48768 11.0009 2.96623C11.0009 2.44479 10.7937 1.9447 10.425 1.57598C10.0563 1.20727 9.55619 1.00012 9.03475 1.00012C8.5133 1.00012 8.01321 1.20727 7.6445 1.57598L7.181 2.03948L6.001 3.21948M9.9615 4.81948L7.3315 7.45048L5.781 8.99998L5.701 9.08048C5.412 9.36898 5.2675 9.51348 5.1085 9.63748C4.92076 9.78379 4.71775 9.90935 4.503 10.012C4.321 10.0985 4.1275 10.163 3.74 10.292L2.0995 10.839M2.0995 10.839L1.6985 10.973C1.60502 11.0043 1.50466 11.009 1.40869 10.9864C1.31272 10.9638 1.22495 10.915 1.15523 10.8452C1.08552 10.7755 1.03663 10.6878 1.01407 10.5918C0.991504 10.4958 0.996155 10.3955 1.0275 10.302L1.1615 9.90098M2.0995 10.839L1.1615 9.90098M1.1615 9.90098L1.7085 8.26048C1.8375 7.87298 1.902 7.67948 1.9885 7.49748C2.0915 7.28182 2.21633 7.07998 2.363 6.89198C2.487 6.73298 2.6315 6.58848 2.92 6.29998L4.251 4.96948" stroke="#613EEA" stroke-width="0.857143" stroke-linecap="round"/>
</svg>
