<svg width="24" height="24" viewBox="0 0 24 21" fill="none" xmlns="http://www.w3.org/2000/svg">
<path d="M7.125 1.16415e-10C7.47656 1.16415e-10 7.77734 0.0351562 8.02734 0.105469C8.27734 0.175781 8.50391 0.269531 8.70703 0.386719C8.91016 0.503906 9.08984 0.625 9.24609 0.75C9.40234 0.875 9.55859 0.996094 9.71484 1.11328C9.87109 1.23047 10.043 1.32031 10.2305 1.38281C10.418 1.44531 10.6328 1.48437 10.875 1.5H22.5C22.7109 1.5 22.9062 1.53906 23.0859 1.61719C23.2656 1.69531 23.4219 1.80078 23.5547 1.93359C23.6875 2.06641 23.7969 2.22656 23.8828 2.41406C23.9688 2.60156 24.0078 2.79688 24 3V13.5H22.5V3H10.875C10.6328 3 10.4219 3.03516 10.2422 3.10547C10.0625 3.17578 9.89062 3.26953 9.72656 3.38672C9.5625 3.50391 9.40234 3.625 9.24609 3.75C9.08984 3.875 8.91406 3.99609 8.71875 4.11328C8.52344 4.23047 8.29688 4.32031 8.03906 4.38281C7.78125 4.44531 7.47656 4.48438 7.125 4.5H1.5V16.5H13.5V18H0V1.5C0 1.28906 0.0390625 1.09375 0.117188 0.914062C0.195312 0.734375 0.300781 0.578125 0.433594 0.445312C0.566406 0.3125 0.726562 0.203125 0.914062 0.117188C1.10156 0.03125 1.29688 -0.0078125 1.5 1.16415e-10H7.125ZM7.125 3C7.3125 3 7.47656 2.98438 7.61719 2.95312C7.75781 2.92188 7.88672 2.87109 8.00391 2.80078C8.12109 2.73047 8.23438 2.65234 8.34375 2.56641C8.45312 2.48047 8.57812 2.375 8.71875 2.25C8.58594 2.13281 8.46484 2.03125 8.35547 1.94531C8.24609 1.85937 8.12891 1.78125 8.00391 1.71094C7.87891 1.64062 7.75 1.58984 7.61719 1.55859C7.48438 1.52734 7.32031 1.50781 7.125 1.5H1.5V3H7.125ZM21 16.5H24V18H21V21H19.5V18H16.5V16.5H19.5V13.5H21V16.5ZM17.0273 8.02734L12 13.0664L6.97266 8.02734L8.02734 6.97266L12 10.9336L15.9727 6.97266L17.0273 8.02734Z" fill="black"/>
</svg>
