<svg width="20" height="20" viewBox="0 0 20 20" fill="none" xmlns="http://www.w3.org/2000/svg">
<path d="M11.9666 3.39914C11.9666 3.39914 12.0624 5.0408 13.5107 6.4883C14.9591 7.93664 16.5999 8.0333 16.5999 8.0333L17.3724 7.2608C17.9869 6.64628 18.3322 5.8128 18.3322 4.94372C18.3322 4.07465 17.9869 3.24117 17.3724 2.62664C16.7579 2.01211 15.9244 1.66687 15.0553 1.66687C14.1862 1.66687 13.3528 2.01211 12.7382 2.62664L11.9657 3.39914L9.99906 5.3658M16.5999 8.03247L12.2166 12.4175L9.63239 15L9.49906 15.1341C9.01739 15.615 8.77656 15.8558 8.51156 16.0625C8.19866 16.3063 7.86031 16.5156 7.50239 16.6866C7.19906 16.8308 6.87656 16.9383 6.23073 17.1533L3.49656 18.065M3.49656 18.065L2.82823 18.2883C2.67244 18.3405 2.50517 18.3483 2.34521 18.3107C2.18526 18.2731 2.03897 18.1916 1.92278 18.0754C1.8066 17.9592 1.72512 17.8129 1.68751 17.653C1.6499 17.493 1.65765 17.3258 1.70989 17.17L1.93323 16.5016M3.49656 18.065L1.93323 16.5016M1.93323 16.5016L2.84489 13.7675C3.05989 13.1216 3.16739 12.7991 3.31156 12.4958C3.48323 12.1364 3.69128 11.8 3.93573 11.4866C4.14239 11.2216 4.38323 10.9808 4.86406 10.5L7.08239 8.28247" stroke="white" stroke-width="1.5" stroke-linecap="round"/>
</svg>
