<svg width="12" height="12" viewBox="0 0 12 12" fill="none" xmlns="http://www.w3.org/2000/svg">
<path d="M10.873 0.280317H1.12305C0.901826 0.278065 0.688747 0.363665 0.530565 0.518332C0.372382 0.672999 0.282017 0.884101 0.279297 1.10532V10.8947C0.282509 11.1156 0.37309 11.3262 0.531219 11.4805C0.689348 11.6347 0.902147 11.7201 1.12305 11.7178H10.873C11.0943 11.7196 11.3072 11.6337 11.4653 11.4789C11.6234 11.3242 11.7138 11.1131 11.7168 10.8919V1.1025C11.7129 0.881937 11.622 0.671842 11.464 0.517885C11.306 0.363927 11.0936 0.278552 10.873 0.280317Z" fill="#090914"/>
<path d="M1.97289 4.56738H3.6707V10.0302H1.97289V4.56738ZM2.82227 1.84863C3.017 1.84863 3.20735 1.90639 3.36925 2.0146C3.53115 2.1228 3.65732 2.27659 3.7318 2.45652C3.80628 2.63645 3.82572 2.83442 3.78766 3.02539C3.7496 3.21637 3.65575 3.39177 3.51799 3.5294C3.38023 3.66703 3.20474 3.76071 3.01373 3.79858C2.82272 3.83646 2.62477 3.81683 2.44491 3.74218C2.26506 3.66753 2.11138 3.54122 2.00333 3.37921C1.89528 3.21721 1.83771 3.0268 1.83789 2.83207C1.83814 2.57116 1.94196 2.32102 2.12654 2.13662C2.31112 1.95221 2.56136 1.84863 2.82227 1.84863ZM4.7357 4.56738H6.3632V5.31738H6.3857C6.61258 4.88801 7.1657 4.4352 7.99164 4.4352C9.71102 4.43145 10.0298 5.56301 10.0298 7.03019V10.0302H8.33195V7.37238C8.33195 6.73957 8.3207 5.92488 7.44977 5.92488C6.57883 5.92488 6.4307 6.61488 6.4307 7.33113V10.0302H4.7357V4.56738Z" fill="white"/>
</svg>
