<svg width="13" height="13" viewBox="0 0 13 13" fill="none" xmlns="http://www.w3.org/2000/svg">
<path d="M6.3956 1.70405C8.02344 1.70405 8.21622 1.71015 8.85928 1.73947C9.24592 1.7442 9.62889 1.8152 9.99154 1.94937C10.2545 2.05079 10.4934 2.20616 10.6927 2.40547C10.892 2.60478 11.0473 2.84361 11.1488 3.1066C11.2829 3.46924 11.3539 3.85221 11.3587 4.23886C11.3877 4.88192 11.3941 5.07469 11.3941 6.70253C11.3941 8.33037 11.388 8.52315 11.3587 9.16621C11.3539 9.55285 11.2829 9.93582 11.1488 10.2985C11.0473 10.5615 10.892 10.8003 10.6927 10.9996C10.4934 11.1989 10.2545 11.3543 9.99154 11.4557C9.62889 11.5899 9.24592 11.6609 8.85928 11.6656C8.21651 11.6946 8.02373 11.701 6.3956 11.701C4.76747 11.701 4.5747 11.6949 3.93193 11.6656C3.54528 11.6609 3.16231 11.5899 2.79967 11.4557C2.53668 11.3543 2.29785 11.1989 2.09854 10.9996C1.89923 10.8003 1.74386 10.5615 1.64244 10.2985C1.50827 9.93582 1.43727 9.55285 1.43254 9.16621C1.40351 8.52315 1.39712 8.33037 1.39712 6.70253C1.39712 5.07469 1.40322 4.88192 1.43254 4.23886C1.43727 3.85221 1.50827 3.46924 1.64244 3.1066C1.74386 2.84361 1.89923 2.60478 2.09854 2.40547C2.29785 2.20616 2.53668 2.05079 2.79967 1.94937C3.16231 1.8152 3.54528 1.7442 3.93193 1.73947C4.57499 1.71044 4.76776 1.70405 6.3956 1.70405ZM6.3956 0.605469C4.74076 0.605469 4.53231 0.612436 3.88199 0.642049C3.37597 0.652114 2.87532 0.747924 2.40134 0.925404C1.99475 1.0786 1.62647 1.31866 1.32222 1.62886C1.01174 1.93322 0.771471 2.30171 0.618183 2.70857C0.440703 3.18255 0.344893 3.68319 0.334828 4.18921C0.305796 4.83895 0.298828 5.0474 0.298828 6.70224C0.298828 8.35708 0.305796 8.56553 0.335409 9.21585C0.345474 9.72187 0.441284 10.2225 0.618764 10.6965C0.771882 11.1033 1.01195 11.4718 1.32222 11.7762C1.62664 12.0865 1.99512 12.3265 2.40193 12.4797C2.87591 12.6571 3.37655 12.753 3.88257 12.763C4.53289 12.792 4.74047 12.7996 6.39618 12.7996C8.05189 12.7996 8.25947 12.7926 8.9098 12.763C9.41582 12.753 9.91646 12.6571 10.3904 12.4797C10.7953 12.3227 11.163 12.083 11.4699 11.7759C11.7769 11.4687 12.0163 11.1009 12.173 10.6959C12.3505 10.2219 12.4463 9.72129 12.4564 9.21527C12.4854 8.56553 12.4924 8.35708 12.4924 6.70224C12.4924 5.0474 12.4854 4.83895 12.4558 4.18863C12.4457 3.68261 12.3499 3.18196 12.1724 2.70798C12.0193 2.30118 11.7793 1.9327 11.469 1.62828C11.1646 1.31801 10.7961 1.07794 10.3893 0.924824C9.9153 0.747344 9.41465 0.651534 8.90864 0.641469C8.25889 0.612437 8.05044 0.605469 6.3956 0.605469Z" fill="#090914"/>
<path d="M6.39647 3.57275C5.77724 3.57275 5.17193 3.75637 4.65706 4.1004C4.1422 4.44442 3.74091 4.93339 3.50395 5.50547C3.26698 6.07756 3.20498 6.70707 3.32578 7.31439C3.44659 7.92171 3.74477 8.47957 4.18263 8.91743C4.62048 9.35528 5.17835 9.65347 5.78567 9.77427C6.39299 9.89508 7.0225 9.83308 7.59458 9.59611C8.16667 9.35914 8.65564 8.95786 8.99966 8.44299C9.34368 7.92813 9.5273 7.32281 9.5273 6.70359C9.5273 5.87324 9.19745 5.0769 8.6103 4.48976C8.02316 3.90261 7.22682 3.57275 6.39647 3.57275ZM6.39647 8.73585C5.99452 8.73585 5.60161 8.61666 5.2674 8.39335C4.9332 8.17005 4.67272 7.85265 4.5189 7.4813C4.36509 7.10996 4.32484 6.70134 4.40326 6.30712C4.48167 5.9129 4.67523 5.55079 4.95944 5.26657C5.24366 4.98235 5.60577 4.7888 5.99999 4.71038C6.39421 4.63197 6.80283 4.67221 7.17418 4.82603C7.54552 4.97985 7.86292 5.24033 8.08623 5.57453C8.30953 5.90873 8.42872 6.30165 8.42872 6.70359C8.42872 7.24258 8.21461 7.75949 7.83349 8.14062C7.45237 8.52174 6.93545 8.73585 6.39647 8.73585Z" fill="#090914"/>
<path d="M9.65153 4.18002C10.0556 4.18002 10.3831 3.85247 10.3831 3.44841C10.3831 3.04435 10.0556 2.7168 9.65153 2.7168C9.24748 2.7168 8.91992 3.04435 8.91992 3.44841C8.91992 3.85247 9.24748 4.18002 9.65153 4.18002Z" fill="#090914"/>
</svg>
