<svg width="629" height="507" viewBox="0 0 629 507" fill="none" xmlns="http://www.w3.org/2000/svg">
<path d="M612.298 223.263C609.132 228.631 569.045 255.79 544.728 259.81C540.023 260.587 534.884 260.855 530.797 258.398C528.382 256.946 526.583 254.683 524.874 252.443C520.966 247.323 517.238 242.065 513.699 236.684C511.839 233.855 509.995 230.903 509.363 227.578C507.69 218.772 514.788 210.863 521.803 205.283C537.928 192.458 556.809 183.114 576.787 178.074C580.323 177.182 584.073 176.426 587.576 177.439C593.263 179.084 596.663 184.838 598.832 190.346C601.002 195.853 602.694 201.877 607.031 205.907C608.021 206.827 615.464 217.896 612.298 223.263Z" fill="white"/>
<path fill-rule="evenodd" clip-rule="evenodd" d="M396.898 457.252C357.992 463.905 376.535 435.629 381.901 400.236C390.717 342.081 401.588 253.703 401.588 253.703C401.588 253.703 408.678 388.369 408.678 421.159C408.678 453.95 401.587 456.45 396.898 457.252Z" fill="white"/>
<path d="M355.328 425.212C356.321 434.576 357.368 444.139 361.348 452.674C359.176 433.347 357.005 414.02 354.834 394.693C354.566 392.306 354.645 389.268 356.841 388.295C358.699 410.119 361.468 431.865 365.141 453.458C365.577 456.021 361.726 457.486 359.564 456.042C357.401 454.598 356.709 451.787 356.218 449.234C352.634 430.627 350.664 411.709 350.336 392.763C345.774 393.662 342.574 398.085 341.651 402.643C340.728 407.2 341.618 411.907 342.507 416.471C345.368 431.162 348.229 445.854 351.091 460.545C352.429 467.417 353.767 474.517 352.29 481.36C346.612 455.434 342.046 429.264 338.611 402.946C295.04 429.59 238.896 434.545 191.332 415.943C180.943 411.881 170.626 406.497 163.765 397.703C158.36 390.775 155.476 382.174 153.965 373.518C148.598 342.776 159.595 311.418 174.521 284.012C180.185 273.613 186.635 262.782 186.178 250.95C186.02 246.876 185.142 242.366 187.521 239.055C187.857 239.668 171.947 125.86 178.33 100.686C193.695 40.0822 243.609 31.8746 275.568 32.6222C297.01 33.1237 432.93 60.1353 452.568 96.8681C478.377 145.146 472.898 185.735 468.314 212.498C466.949 220.468 401.607 253.116 401.589 253.281C397.854 288.008 372.785 363.678 351.76 391.569C352.949 402.783 354.139 413.997 355.328 425.212Z" fill="white"/>
<path fill-rule="evenodd" clip-rule="evenodd" d="M41.5911 283.906C29.3371 279.015 14.734 280.465 3.68614 287.672C2.61658 288.37 1.07885 287.592 0.549375 286.431C0.0198979 285.271 0.217946 283.92 0.488782 282.674C4.01722 266.436 18.0735 254.012 33.7054 248.302C49.3372 242.593 66.4358 242.577 83.0526 243.553C84.7013 243.649 86.4247 243.778 87.8311 244.643C89.2375 245.507 90.1838 247.355 89.4828 248.848C82.9462 262.767 78.0222 277.44 74.8403 292.481C74.3243 294.92 71.7971 296.538 69.3082 296.742C66.8192 296.945 64.3804 296.027 62.1216 294.963C55.0822 291.65 48.8174 286.791 41.5911 283.906Z" fill="white"/>
<path fill-rule="evenodd" clip-rule="evenodd" d="M418.247 38.7851C418.856 29.4704 418.154 20.0711 416.168 10.9502L416.125 10.7559C415.788 9.21363 415.442 7.6273 415.752 6.08385C416.439 2.67034 420.23 0.6157 423.712 0.687362C427.193 0.759024 430.418 2.4208 433.498 4.04365C448.272 11.8263 463.312 19.8054 474.944 31.7857C475.309 41.4847 473.023 51.0562 470.766 60.5049L470.554 61.3927C461.134 100.884 453.421 140.783 447.442 180.94C446.869 184.789 445.782 189.329 442.131 190.677C439.513 191.644 436.468 190.409 434.607 188.327C432.747 186.246 431.858 183.483 431.237 180.761C429.707 174.046 429.523 167.027 430.699 160.24C431.418 156.09 432.634 152.054 433.85 148.016L433.85 148.015L433.85 148.015L433.85 148.015L433.85 148.014L433.851 148.014L433.851 148.014L433.851 148.013C434.942 144.389 436.034 140.764 436.767 137.055C437.501 133.346 437.87 129.576 438.229 125.812C440.135 105.796 441.753 85.7525 443.08 65.6899C443.268 62.8549 443.438 59.9307 442.51 57.2455C440.858 52.4696 436.046 49.4509 431.186 48.0669C430.349 47.8284 429.498 47.6255 428.647 47.4227L428.647 47.4226C426.666 46.9504 424.687 46.4786 422.881 45.5583C420.299 44.2425 418.058 41.6773 418.247 38.7851ZM427.275 38.0196C434.145 39.4693 440.859 41.6584 447.263 44.537C448.553 45.1165 449.909 45.795 450.606 47.0252C451.175 48.0299 451.207 49.2399 451.224 50.3944C451.426 63.9544 451.468 77.5503 450.032 91.0355C449.172 99.1105 447.785 107.115 446.398 115.119C445.96 117.652 445.521 120.186 445.098 122.721C443.009 135.268 441.327 147.882 440.057 160.538C439.135 169.72 438.46 179.211 441.316 187.987C442.782 187.719 443.346 185.954 443.623 184.491L470.02 45.356C470.66 41.9849 471.299 38.4996 470.545 35.1521C469.226 29.2916 464.024 25.2166 459.009 21.9102C449.354 15.545 439.077 10.1239 428.372 5.74921C427.482 16.4796 427.116 27.2535 427.275 38.0196ZM440.848 129.397C445.681 104.584 447.865 79.2562 447.35 53.9823C447.311 52.0734 447.208 50.0221 446.041 48.5114C445.185 47.4044 443.878 46.756 442.601 46.1841C437.806 44.0362 432.765 42.438 427.608 41.4307C426.116 41.1391 423.921 41.455 423.987 42.9744L442.522 50.6335C443.609 51.0828 444.767 51.5909 445.381 52.5941C445.984 53.578 445.925 54.8139 445.847 55.965L440.848 129.397ZM423.601 3.29566C422.073 2.28268 419.865 3.32688 419.014 4.95059C418.163 6.5743 418.292 8.5181 418.485 10.3412C418.768 13.0153 419.141 15.6909 419.513 18.3668L419.514 18.3689C420.548 25.7949 421.582 33.2239 420.703 40.6344C422.105 41.1155 423.67 40.1276 424.35 38.8107C425.03 37.4939 425.047 35.9472 425.05 34.4652L425.097 7.74169C425.099 6.10843 424.962 4.19812 423.601 3.29566ZM437.325 187.383C436.483 180.779 436.262 174.096 436.667 167.451C436.883 163.898 437.277 160.357 437.671 156.817C438.193 152.135 438.714 147.455 438.823 142.748C434.973 154.206 433.52 166.462 434.583 178.503C434.859 181.635 435.372 184.919 437.325 187.383ZM439.443 135.98C440.063 135.702 440.323 134.832 439.958 134.26C439.329 134.57 439.061 135.448 439.411 136.056L439.443 135.98ZM433.687 78.594C403.051 59.7005 368.41 48.3806 333.768 38.6129C322.693 35.4904 311.527 32.4984 300.092 31.2174C266.212 27.4218 231.865 39.1115 203.693 58.3119C192.395 66.0123 181.494 75.4844 176.613 88.2562C172.991 97.7324 173.016 108.165 173.365 118.304C174.57 153.271 179.057 188.033 183.538 222.733C187.042 222.101 187.388 217.255 186.881 213.731C182.221 181.371 179.608 148.716 179.063 116.026C178.91 106.859 178.958 97.4618 182.13 88.8603C187.873 73.2897 202.684 63.1065 217.216 55.0927C235.521 44.999 255.418 36.514 276.316 36.0636C301.63 35.518 325.624 46.7468 347.738 59.0791C360.066 65.9544 372.566 73.632 380.409 85.3686C387.531 96.0256 390.118 109.014 391.987 121.694C397.918 161.94 398.135 202.782 398.341 243.462C398.349 245.108 398.248 246.994 396.959 248.016C396.078 248.716 394.874 248.803 393.75 248.862L352.451 251.011C371.696 256.545 393.044 254.362 410.771 245.05L456.659 220.943C460.942 218.693 465.363 216.33 468.315 212.497C472.378 207.222 472.959 200.126 473.151 193.471C473.859 168.891 471.401 144.221 465.857 120.264C467.779 146.18 468.045 172.218 466.655 198.168C466.417 202.6 466.062 207.249 463.652 210.976C461.078 214.956 456.604 217.21 452.34 219.282L402.817 243.352C404.867 204.874 403.277 166.202 398.076 128.022C396.327 115.18 394.095 102.159 388.219 90.6079C374.331 63.3097 343.591 49.8062 315.181 38.3639C357.656 50.7905 400.616 63.4225 438.828 85.7463C439.325 82.6622 436.346 80.2337 433.687 78.594ZM591.953 196.052C594.154 201.727 597.25 207.776 602.94 209.939C604.287 210.043 605.092 208.256 604.65 206.979C604.281 205.912 603.412 205.135 602.559 204.371C602.39 204.221 602.223 204.071 602.06 203.919C598.439 200.555 596.662 195.801 594.911 191.117C594.565 190.191 594.219 189.268 593.861 188.359C591.692 182.851 588.291 177.097 582.605 175.452C579.102 174.439 575.352 175.194 571.816 176.087C551.838 181.127 532.957 190.47 516.831 203.296C509.816 208.875 502.718 216.785 504.392 225.59C505.023 228.916 506.868 231.868 508.727 234.696C512.267 240.078 515.995 245.336 519.902 250.456C521.611 252.695 523.411 254.959 525.825 256.41C529.913 258.867 535.051 258.6 539.757 257.822C564.073 253.803 584.886 238.691 604.69 224.019C605.721 223.256 606.793 222.442 607.327 221.276C607.861 220.109 607.633 218.487 606.5 217.885C605.202 217.195 603.67 218.148 602.512 219.054C584.083 233.483 564.397 247.582 541.547 252.651C537.215 253.612 532.441 254.178 528.543 252.057C525.627 250.47 523.658 247.617 521.799 244.866L510.272 227.81C509.301 226.374 508.294 224.83 508.258 223.096C508.222 221.363 509.623 219.488 511.343 219.711C527.501 221.813 543.735 223.323 560.004 224.239C561.299 224.312 562.654 224.37 563.833 223.831C565.353 223.137 566.28 221.6 567.091 220.139C573.978 207.723 579.239 194.406 582.697 180.635C587.294 183.931 589.439 189.514 591.486 194.842L591.719 195.447C591.797 195.649 591.875 195.851 591.953 196.052ZM577.73 179.546C574.652 191.062 570.098 202.183 564.215 212.551C563.229 214.289 562.134 216.079 560.409 217.089C558.215 218.374 555.485 218.132 552.958 217.85L512.71 213.359C519.387 204.534 529.308 198.807 539.219 193.886C548.602 189.229 558.233 185.073 568.06 181.445C571.171 180.296 574.434 179.184 577.73 179.546ZM355.328 425.211C356.322 434.576 357.368 444.139 361.348 452.674L354.834 394.692C354.566 392.305 354.645 389.268 356.841 388.294C358.699 410.118 361.469 431.864 365.141 453.457C365.577 456.021 361.726 457.486 359.564 456.042C357.401 454.598 356.709 451.786 356.218 449.233C352.634 430.626 350.664 411.709 350.336 392.763C345.774 393.661 342.574 398.085 341.652 402.642C340.729 407.199 341.618 411.906 342.507 416.47L351.091 460.544C352.429 467.416 353.767 474.516 352.291 481.36C346.612 455.433 342.046 429.263 338.611 402.945C295.04 429.589 238.896 434.544 191.332 415.943C180.943 411.88 170.626 406.497 163.765 397.702C158.36 390.774 155.476 382.173 153.965 373.517C148.598 342.775 159.595 311.417 174.521 284.011C174.91 283.297 175.303 282.581 175.696 281.863C181.038 272.121 186.603 261.969 186.178 250.95C186.15 250.222 186.098 249.481 186.047 248.735L186.047 248.733L186.047 248.733L186.047 248.732C185.81 245.302 185.567 241.774 187.521 239.055C190.141 243.822 191.139 249.462 190.313 254.839C235.422 252.898 280.597 252.507 325.732 253.667C326.259 255.742 323.252 256.706 321.112 256.674C278.991 256.046 236.849 256.763 194.774 258.825C193.442 258.891 192.043 258.977 190.913 259.687C189.725 260.433 189.033 261.743 188.394 262.992C176.453 286.357 164.472 310.063 158.7 335.66C155.732 348.823 154.595 363.23 160.678 375.275C162.986 379.844 166.25 383.879 169.895 387.474C189.46 406.773 218.759 412.689 246.237 412.228C263.774 411.933 281.273 409.412 298.18 404.744C316.104 399.796 333.98 391.996 346.215 377.993C353.4 369.77 358.283 359.811 362.559 349.764C370.725 330.579 376.988 310.585 381.227 290.171C383.882 290.729 383.919 294.483 383.306 297.125C375.728 329.82 366.919 364.669 341.958 387.102C319.413 407.364 287.645 413.647 257.381 415.342C239.899 416.321 222.142 416.015 205.209 411.559C188.277 407.103 172.109 398.187 161.359 384.367C164.495 396.321 175.115 404.852 186.171 410.373C215.202 424.87 249.483 424.103 281.538 419.064C302.891 415.708 324.808 410.199 341.426 396.376C355.63 384.56 364.683 367.686 371.496 350.512C379.038 331.502 384.27 311.576 387.04 291.313C388.765 290.223 390.043 293.272 389.825 295.301C386.09 330.028 372.785 363.677 351.76 391.569L355.328 425.211ZM335.139 484.596C333.287 481.468 332.095 477.951 331.662 474.342L329.001 483.361L322.285 457.746C321.764 455.759 320.496 453.272 318.486 453.699C316.533 454.114 316.314 456.795 316.605 458.771C318.068 468.708 320.858 478.448 324.879 487.652L317.737 481.385C317.389 484.369 318.174 487.471 319.9 489.93C316.18 487.19 311.189 486.256 306.73 487.465C309.917 491.892 314.243 495.492 319.176 497.821L313.141 489.397C318.019 492.213 323.13 494.626 328.404 496.603L323.291 490.191L329.609 491.942C324.774 480.944 319.849 469.525 319.966 457.511C321.796 467.284 324.475 476.898 327.963 486.21C328.554 487.788 329.21 489.42 330.47 490.539C331.729 491.659 333.775 492.081 335.094 491.032C336.12 490.217 336.419 488.812 336.651 487.523L339.497 471.741L342.623 491.313C344.993 485.327 352.7 483.826 359.138 483.786C367.641 483.733 376.206 484.67 384.749 485.604C400.149 487.288 415.477 488.964 430.233 484.822C429.799 487.103 429.041 489.322 427.989 491.392C439.895 489.659 451.943 488.898 463.972 489.12C469.053 489.214 474.149 489.481 479.244 489.749H479.245H479.245H479.246H479.246H479.247H479.247H479.248H479.248C492.72 490.456 506.192 491.163 519.391 488.661L431.788 487.892C433.433 487.796 434.694 485.883 434.133 484.333C433.573 482.784 431.38 482.12 430.054 483.099C429.192 480.361 425.32 479.142 423.045 480.895C424.364 476.83 426.971 473.194 430.398 470.64C426.53 470.433 422.602 471.617 419.493 473.928L428.915 430.318C428.119 429.633 426.79 430.094 426.201 430.964C425.619 431.826 425.554 432.923 425.492 433.962L425.49 433.995C424.608 448.886 419.357 463.492 410.556 475.536L407.1 465.537L402.147 477.481C399.902 475.742 396.717 475.303 394.086 476.37C394.758 478.924 396.801 481.073 399.318 481.872L400.49 478.731L408.228 483.915C405.27 480.815 404.629 475.745 406.723 472.007L411.406 479.862L420.482 461.91C420.534 469.118 417.444 475.931 414.416 482.472C417.707 479.894 420.536 476.728 422.729 473.169C424.845 476.917 422.534 481.943 418.853 484.174C415.172 486.405 410.62 486.526 406.319 486.344C399.758 486.067 393.146 485.243 386.542 484.42C371.713 482.571 356.925 480.728 342.838 485.094L340.807 466.364C337.704 471.971 335.762 478.218 335.139 484.596ZM423.523 485.095C423.205 484.715 423.207 484.104 423.527 483.726L423.783 483.822C424.213 482.793 426.023 482.877 426.355 483.942C425.521 484.544 424.541 484.943 423.523 485.095ZM471.383 286.101C461.181 280.944 449.039 282.336 437.714 283.889C434.514 284.327 431.251 284.787 428.352 286.212C425.453 287.637 422.929 290.218 422.429 293.409C394.769 289.956 368.263 277.781 347.622 259.048C343.142 254.983 338.57 249.193 340.585 243.489C341.218 241.696 342.45 240.183 343.732 238.778C353.356 228.227 366.624 221.881 379.541 215.79C364.901 217.074 350.855 224.194 341.165 235.243C338.945 237.775 336.897 240.604 336.133 243.884C334.244 251.983 340.535 259.581 346.831 265.015C366.918 282.352 392.185 293.611 418.509 296.954C420.087 297.155 420.169 299.374 420.024 300.959C419.383 308.008 423.225 314.887 428.551 319.549C433.876 324.211 440.547 327.011 447.166 329.518C467.664 337.282 488.936 343 510.565 346.56C511.994 346.795 513.956 346.684 514.257 345.268C509.266 341.966 503.259 340.708 497.385 339.478C497.068 339.411 496.751 339.345 496.434 339.278C481.542 336.143 466.849 332.06 452.474 327.061C446.577 325.011 440.666 322.771 435.524 319.23C430.382 315.688 426.015 310.685 424.371 304.661C423.559 301.687 424.661 297.247 427.721 297.622C440.182 299.145 452.986 300.65 465.153 297.559C467.906 296.86 470.777 295.805 472.455 293.513C474.133 291.221 473.919 287.383 471.383 286.101ZM439.952 294.336C435.675 293.6 431.305 293.403 426.979 293.751C429.081 289.758 434.216 288.706 438.688 288.097C448.406 286.774 458.527 285.484 467.838 288.565C468.453 288.768 469.11 289.028 469.443 289.584C469.881 290.316 469.561 291.312 468.938 291.895C468.316 292.479 467.468 292.743 466.646 292.973C457.995 295.391 448.805 295.86 439.952 294.336ZM298.406 495.792C305.565 495.592 312.766 497.174 319.182 500.357C317.467 502.821 314.02 503.167 311.02 503.28L232.606 506.256C231.887 506.167 231.752 505.057 232.261 504.542C232.77 504.027 233.566 503.961 234.289 503.926L310.837 500.193C306.414 499.787 302.099 498.259 298.406 495.792ZM147.5 236.459C146.383 241.803 150.904 247.505 156.348 247.909C147.445 261.327 131.407 267.949 115.997 272.623C106.38 275.541 95.7112 277.936 86.5426 273.82C85.4047 274.515 86.6181 276.227 87.8194 276.806C96.7418 281.106 107.32 278.71 116.811 275.878C130.729 271.724 145.076 266.355 154.546 255.343C154.934 254.892 155.321 254.428 155.71 253.96L155.71 253.96C158.147 251.03 160.689 247.975 164.354 247.297C176.153 245.115 185.98 237.725 195.691 230.423C197.894 228.766 200.09 227.114 202.302 225.529C215.747 215.893 230.659 208.307 246.365 203.115C247.752 202.657 249.439 201.805 249.315 200.35C229.843 202.137 212.823 213.749 197.129 225.413L196.606 225.802C185.94 233.732 174.794 242.017 161.67 243.983C165.957 240.602 165.052 232.789 160.215 230.256C155.379 227.723 148.617 231.115 147.5 236.459ZM151.134 239.726C150.259 237.133 151.61 234.049 154.011 232.737C154.692 232.364 155.455 232.116 156.231 232.115C158.795 232.112 160.667 234.854 160.684 237.418C160.701 239.981 159.401 242.346 158.138 244.577C155.184 244.124 152.09 242.558 151.134 239.726ZM442.507 182.599C441.781 181.791 442.004 180.703 442.235 179.575C442.399 178.778 442.566 177.962 442.405 177.212C442.266 176.561 441.886 176.007 441.505 175.451C441.169 174.959 440.831 174.466 440.657 173.903C440.697 173.159 441.692 172.777 442.37 173.086C443.048 173.394 443.427 174.122 443.664 174.828C444.527 177.406 444.084 180.385 442.507 182.599ZM376.865 126.04C378.68 121.738 382.276 117.924 386.863 117.05C388.347 116.768 388.301 114.321 387 113.552C385.7 112.783 384.03 113.237 382.666 113.887C376.312 116.911 372.3 123.568 370.728 130.428C369.156 137.287 369.676 144.431 370.205 151.448L373.014 188.747C373.109 190.015 373.226 191.347 373.932 192.405C375.37 194.559 378.455 194.627 381.04 194.462L394.125 193.631C391.217 191.352 387.314 190.393 383.681 191.064C381.559 191.456 379.428 190.056 378.303 188.215C377.179 186.373 376.85 184.169 376.571 182.029C374.747 168.031 374.078 153.883 374.573 139.775C374.736 135.109 375.051 130.341 376.865 126.04ZM410.276 457.119C409.533 457.658 408.788 456.43 408.679 455.518C403.623 413.012 402.86 370.126 402.103 327.326L401.593 298.473C401.578 297.651 401.59 296.751 402.118 296.121C403.027 295.037 404.94 295.534 405.734 296.705C406.528 297.876 406.529 299.393 406.503 300.807C405.724 342.924 406.236 385.123 410.268 427.054C410.317 427.564 410.367 428.074 410.417 428.585C411.341 438.11 412.279 447.779 410.276 457.119ZM368.235 189.184C367.127 188.575 365.761 188.92 364.549 189.278C308.488 205.859 252.556 222.956 197.447 242.469C196.415 242.834 195.235 243.36 194.999 244.429C194.748 245.56 195.813 246.641 196.953 246.851C198.093 247.061 199.246 246.653 200.334 246.253C255.561 225.937 311.621 207.88 368.324 192.143C369.541 191.805 369.342 189.792 368.235 189.184Z" fill="#00160A"/>
<path fill-rule="evenodd" clip-rule="evenodd" d="M567.97 442.814C566.665 443.387 565.252 443.921 563.847 443.68C562.442 443.438 561.128 442.119 561.41 440.722C563.99 427.945 560.75 414.11 552.766 403.808C549.968 400.197 546.637 397.02 543.911 393.355C542.193 391.046 540.664 388.141 541.536 385.398C542.776 381.494 547.769 380.545 551.855 380.266C561.355 379.619 570.854 378.971 580.354 378.324C584.731 378.026 589.772 377.981 592.694 381.254C600.828 390.364 616.681 390.976 625.493 382.52C626.856 381.211 628.573 383.816 628.519 385.705C628.349 391.645 625.901 397.492 621.788 401.781C620.817 402.793 619.576 403.784 618.182 403.639C616.787 403.493 615.759 401.491 616.871 400.637C619.256 398.805 621.685 396.927 623.358 394.427C625.03 391.927 625.841 388.65 624.701 385.866C618.565 393.629 612.369 401.346 606.116 409.015C595.274 422.313 583.679 435.914 567.97 442.814ZM585.105 403.684C583.544 404.116 581.879 403.784 580.321 403.344C569.109 400.176 558.78 391.416 547.31 393.466C560.683 404.236 567.784 422.295 565.328 439.29C574.139 437.403 581.097 430.825 587.338 424.325C596.575 414.703 605.346 404.634 613.61 394.165C607.67 394.116 601.753 392.403 596.706 389.271C590.472 390.813 591.295 401.972 585.105 403.684ZM593.247 385.996C589.532 381.617 582.858 381.753 577.138 382.255C569.677 382.91 562.217 383.566 554.756 384.221C551.727 384.487 548.249 385.019 546.669 387.617C559.582 390.32 572.171 394.566 584.083 400.235C585.615 395.423 588.686 391.114 592.734 388.094C593.189 387.755 593.711 387.319 593.65 386.754C593.619 386.465 593.435 386.218 593.247 385.996V385.996Z" fill="#FFB61D"/>
<path fill-rule="evenodd" clip-rule="evenodd" d="M40.1468 281.579C28.91 277.085 15.5191 278.418 5.38838 285.038C4.40761 285.679 2.99753 284.965 2.512 283.898C2.02648 282.832 2.20808 281.591 2.45644 280.446C5.69198 265.53 18.5814 254.116 32.9157 248.871C47.2499 243.625 62.9291 243.611 78.1665 244.507C79.6784 244.596 81.2587 244.715 82.5484 245.509C83.8381 246.303 84.7058 248.001 84.063 249.372C78.069 262.159 73.5537 275.639 70.636 289.456C70.1628 291.697 67.8454 293.183 65.5631 293.37C63.2807 293.557 61.0444 292.713 58.9731 291.736C52.518 288.693 46.7733 284.229 40.1468 281.579ZM41.4313 266.486C40.4298 267.3 38.8645 266.87 37.9222 265.988C36.9799 265.107 36.4429 263.887 35.7022 262.831C31.7292 257.163 22.6118 257.633 17.2074 261.958C11.8031 266.282 9.1879 273.115 6.80648 279.613C22.6615 272.727 42.1897 275.198 55.8293 285.817C57.6915 287.267 59.5393 288.901 61.8325 289.459C64.1257 290.017 67.0146 289.014 67.5954 286.727C70.6985 274.506 74.5223 262.469 79.0404 250.698C70.3712 261.473 52.1652 257.765 41.4313 266.486ZM37.9804 259.973C38.8708 261.092 40.4873 261.389 41.8945 261.136C43.3018 260.884 44.5802 260.183 45.8914 259.613C50.4058 257.651 55.4057 257.213 60.2455 256.315C65.0853 255.418 70.0773 253.9 73.4844 250.347C65.7972 250.324 58.11 250.301 50.4228 250.278C42.6974 250.254 34.3725 250.418 28.1663 255.019C31.9444 255.156 35.626 257.015 37.9804 259.973Z" fill="#FFB61D"/>
<path fill-rule="evenodd" clip-rule="evenodd" d="M401.16 280.55C401.142 273.789 401.124 267.027 401.106 260.265C401.1 258.323 401.095 256.382 401.09 254.44C401.086 253.101 401.311 251.425 402.583 251.009C403.546 250.694 404.605 251.386 405.056 252.293C405.506 253.2 405.5 254.257 405.485 255.27C405.345 264.706 405.204 274.142 405.064 283.578C405.044 284.935 404.816 286.605 403.546 287.081C401.426 285.881 401.167 282.986 401.16 280.55H401.16Z" fill="#00160A"/>
<path fill-rule="evenodd" clip-rule="evenodd" d="M387.66 274.293C386.681 274.722 386.176 273.109 386.327 272.051C386.868 268.265 387.411 264.471 388.332 260.758C388.906 258.447 389.732 256.015 391.641 254.592C393.55 253.169 396.827 253.418 397.761 255.608C398.214 256.669 398.026 257.881 397.818 259.016C396.533 266.04 394.802 272.983 392.639 279.788C392.547 280.077 392.447 280.378 392.228 280.588C391.696 281.098 390.736 280.755 390.367 280.117C389.998 279.478 390.046 278.691 390.105 277.956C390.984 277.892 391.394 276.858 391.605 276.003C392.467 272.508 393.329 269.014 394.191 265.519C394.861 262.8 395.473 259.704 393.912 257.379C392.309 258.366 391.707 260.363 391.23 262.185C390.27 265.849 389.31 269.514 388.35 273.179C388.235 273.617 388.074 274.111 387.66 274.293L387.66 274.293Z" fill="#00160A"/>
</svg>
