<?xml version="1.0" encoding="UTF-8"?>
<svg version="1.1" xmlns="http://www.w3.org/2000/svg" width="2500" height="2000">
<path d="M0 0 C26.73 0 53.46 0 81 0 C81.0093457 6.00098877 81.01869141 12.00197754 81.02832031 18.18481445 C81.06208445 38.0100561 81.11742966 57.83519407 81.18390274 77.66035175 C81.22367903 89.68055248 81.25607874 101.70068786 81.27099609 113.72094727 C81.28401986 124.20018497 81.31100321 134.67927883 81.35461307 145.15843552 C81.37721137 150.70492768 81.39291165 156.25124253 81.39188385 161.79778481 C81.39113629 167.02386318 81.40912603 172.24954982 81.44116783 177.47552681 C81.44965053 179.38821881 81.4514279 181.30095484 81.44580269 183.21365738 C81.41175051 196.57757948 82.02861001 208.91399634 92 219 C100.31794102 225.64080016 108.67061252 226.38817227 119 226.375 C120.66035278 226.37584595 120.66035278 226.37584595 122.35424805 226.37670898 C131.18998104 226.25869284 138.67555709 224.8990018 147 222 C148.32 221.67 149.64 221.34 151 221 C151 148.07 151 75.14 151 0 C177.4 0 203.8 0 231 0 C231 86.13 231 172.26 231 261 C219.15448807 266.92275597 219.15448807 266.92275597 213 268.9375 C212.25000732 269.18346924 211.50001465 269.42943848 210.72729492 269.68286133 C192.27649002 275.52102094 173.25100231 279.17493539 154 281 C152.99807617 281.09498779 151.99615234 281.18997559 150.96386719 281.2878418 C141.16534067 282.10149269 131.38841988 282.18615893 121.56103516 282.18530273 C118.76839862 282.18748562 115.97616073 282.20570418 113.18359375 282.22460938 C97.97490681 282.27354375 82.99364376 281.436023 68.1875 277.6875 C66.86806396 277.3615686 66.86806396 277.3615686 65.52197266 277.02905273 C50.52092438 273.20647156 36.79978824 267.18874704 25 257 C24.32195313 256.41734375 23.64390625 255.8346875 22.9453125 255.234375 C6.56437015 240.06447508 0.63440256 216.70925231 -0.26622581 195.08689308 C-0.39939431 189.8855042 -0.37250714 184.68615948 -0.34057617 179.48364258 C-0.33972732 177.51042189 -0.34021007 175.53720025 -0.34190369 173.5639801 C-0.34275498 168.27179987 -0.32527149 162.97982884 -0.30418181 157.6876967 C-0.28526866 152.13309211 -0.28365315 146.57848131 -0.28010559 141.02384949 C-0.27082773 130.5342271 -0.24627235 120.04469992 -0.21605712 109.55511922 C-0.18237956 97.60086872 -0.16599371 85.64661337 -0.15097082 73.69232714 C-0.11971841 49.12815336 -0.06476038 24.56410987 0 0 Z " fill="#FFFFFF" transform="translate(2182,847)"/>
<path d="M0 0 C28.05 0 56.1 0 85 0 C88.37503413 10.12510239 88.37503413 10.12510239 89.3631897 14.29959106 C89.7032605 15.72291245 89.7032605 15.72291245 90.05020142 17.17498779 C90.28709686 18.1847467 90.52399231 19.19450562 90.76806641 20.23486328 C91.02714783 21.32445343 91.28622925 22.41404358 91.55316162 23.53665161 C92.40657926 27.13028148 93.25413584 30.72526559 94.1015625 34.3203125 C94.70315599 36.859686 95.30508072 39.39898104 95.90731812 41.9382019 C97.17254904 47.27537847 98.43473979 52.6132663 99.69482422 57.95166016 C100.96845685 63.34741485 102.24430381 68.74263797 103.52294922 74.13720703 C103.75635147 75.12193084 103.75635147 75.12193084 103.99446893 76.12654805 C104.30770697 77.44806371 104.6209471 78.76957887 104.93418932 80.09109354 C108.37480709 94.6083032 111.80019584 109.12907514 115.21327209 123.65278625 C115.96019463 126.83064401 116.70803197 130.00828541 117.45593262 133.18591309 C118.52392761 137.72688765 119.58661071 142.26907031 120.64439011 146.81243515 C121.0117321 148.3878551 121.38050283 149.96294286 121.75096512 151.53763199 C124.88695951 164.87986057 127.75743756 178.33181313 129 192 C130.0674899 187.89070928 131.06630877 183.79952497 131.85620117 179.62768555 C135.94952948 158.19135101 141.8488089 137.17445373 147.44269562 116.09366226 C148.90633853 110.57236348 150.36284101 105.04918223 151.81982422 99.52612305 C153.85203006 91.82469026 155.88614367 84.12376729 157.92318344 76.42361164 C162.51653215 59.06005022 167.07412149 41.68723296 171.625 24.3125 C173.72875 16.289375 175.8325 8.26625 178 0 C203.08 0 228.16 0 254 0 C252.87512829 7.87410196 252.87512829 7.87410196 251.67163086 11.49926758 C251.26772881 12.73099701 251.26772881 12.73099701 250.85566711 13.98760986 C250.41470955 15.30278595 250.41470955 15.30278595 249.96484375 16.64453125 C249.65496017 17.58520447 249.3450766 18.52587769 249.02580261 19.49505615 C248.35409529 21.53244633 247.67981153 23.5689885 247.00323486 25.60476685 C245.1629243 31.14387924 243.3427235 36.68960972 241.51953125 42.234375 C241.14209778 43.38051773 240.76466431 44.52666046 240.37579346 45.70753479 C236.56049595 57.30517325 232.83485208 68.93078338 229.125 80.5625 C227.79322484 84.73445677 226.46105146 88.90628637 225.12890625 93.078125 C224.79413269 94.12681763 224.45935913 95.17551025 224.11444092 96.25598145 C220.11480457 108.78049977 216.08833968 121.29638531 212.0625 133.8125 C210.54284385 138.53772026 209.02332156 143.26298355 207.50390625 147.98828125 C206.94098877 149.73891624 206.94098877 149.73891624 206.36669922 151.5249176 C202.40485819 163.84793313 198.45207346 176.1738492 194.5 188.5 C188.29690212 207.84637377 182.08360294 227.18944824 175.86474609 246.53076172 C170.75315622 262.42884042 165.64728729 278.32873845 160.54840088 294.230896 C159.5077507 297.47583192 158.46660413 300.72060816 157.42529297 303.96533203 C154.25497158 313.84492742 151.08656396 323.72511483 147.92908096 333.60882187 C146.26764427 338.80927295 144.60390999 344.00898556 142.93868637 349.20822525 C141.93913032 352.32955651 140.94121201 355.45139656 139.94555664 358.57397461 C138.84444031 362.02688975 137.73909128 365.47842349 136.6328125 368.9296875 C136.30858307 369.95009125 135.98435364 370.970495 135.65029907 372.02182007 C135.34433807 372.97352081 135.03837708 373.92522156 134.72314453 374.90576172 C134.46131378 375.72519257 134.19948303 376.54462341 133.92971802 377.3888855 C132.76873321 380.64951315 131.36341487 383.81869865 130 387 C102.28 387 74.56 387 46 387 C46.6905237 382.85685779 47.16684449 380.14867467 48.6835022 376.45999146 C49.03130234 375.60506104 49.37910248 374.75013062 49.73744202 373.86929321 C50.11879807 372.9496579 50.50015411 372.03002258 50.89306641 371.08251953 C51.29471512 370.09962952 51.69636383 369.1167395 52.11018372 368.10406494 C52.98069447 365.97505658 53.85384251 363.84712506 54.72932816 361.72015762 C56.11440331 358.35158299 57.48974756 354.97919333 58.8621521 351.60543823 C62.76427665 342.01517124 66.67625663 332.4290254 70.61328125 322.85302734 C73.02257854 316.99094615 75.41407728 311.12187277 77.79435349 305.24795151 C78.70390086 303.01335036 79.62015883 300.78146832 80.54326248 298.55243301 C81.83420267 295.43358964 83.10231202 292.30634625 84.36572266 289.17626953 C84.75112717 288.26068268 85.13653168 287.34509583 85.53361511 286.40176392 C88.62458334 278.62764971 87.95911637 273.3315049 85.36791992 265.3684082 C85.03134872 264.32221817 84.69477753 263.27602814 84.3480072 262.19813538 C83.97921951 261.07700851 83.61043182 259.95588165 83.23046875 258.80078125 C82.84246597 257.60218979 82.4544632 256.40359833 82.05470276 255.16868591 C80.99548979 251.89752504 79.92730027 248.62935964 78.85740662 245.36167908 C77.72489721 241.89744312 76.60085535 238.43046006 75.47558594 234.96386719 C68.85776636 214.5934715 62.17289924 194.24471986 55.4836731 173.89767456 C49.63107156 156.09541325 43.86452569 138.26811113 38.18173218 120.41094971 C31.19608899 98.47392201 24.0058287 76.60497195 16.79931641 54.73974609 C14.19221446 46.82889512 11.59252251 38.91564067 9 31 C8.78100792 30.33195847 8.56201584 29.66391693 8.33638763 28.97563171 C6.83017651 24.3793533 5.33302745 19.78021495 3.83984375 15.1796875 C3.45123672 13.99303497 3.0626297 12.80638245 2.6622467 11.58377075 C2.13515358 9.95264847 2.13515358 9.95264847 1.59741211 8.28857422 C1.28758896 7.33570526 0.97776581 6.3828363 0.65855408 5.40109253 C0 3 0 3 0 0 Z " fill="#FFFFFF" transform="translate(1614,847)"/>
<path d="M0 0 C-1.34883447 6.6469856 -3.20683019 12.89901211 -5.4765625 19.28515625 C-5.80667328 20.22685165 -6.13678406 21.16854706 -6.47689819 22.13877869 C-7.52146314 25.11506676 -8.57310378 28.08879613 -9.625 31.0625 C-10.33901278 33.09293335 -11.05255904 35.12353082 -11.765625 37.15429688 C-13.50502869 42.10477442 -15.25023209 47.05317688 -17 52 C-19.79080242 51.33133773 -22.23899209 50.52062158 -24.8359375 49.29296875 C-25.56393555 48.95531494 -26.29193359 48.61766113 -27.04199219 48.26977539 C-28.19683105 47.73404907 -28.19683105 47.73404907 -29.375 47.1875 C-47.12421887 39.11983663 -69.43800464 33.40890238 -88.6484375 39.96484375 C-98.87600524 44.46701227 -105.05390967 49.76077349 -109.3125 60.1875 C-113.22027217 72.0252701 -113.03548344 84.83068699 -107.875 96.25 C-97.80235621 114.45042553 -73.48780225 123.42092252 -55.64282227 132.10693359 C-42.41981208 138.56902148 -29.95461451 146.09715793 -19 156 C-18.5157959 156.43505859 -18.0315918 156.87011719 -17.53271484 157.31835938 C1.20565098 174.37839324 11.11480745 195.65461188 12.87109375 221.02734375 C14.32098856 254.46279685 6.06441934 283.04308226 -16.140625 308.44921875 C-36.90790345 330.48560866 -68.06046486 342.30073092 -97.90309143 343.22399902 C-131.22618871 344.04868453 -169.66702749 342.89336367 -198 323 C-197.42679043 315.89669703 -195.43790586 309.58250965 -193.18359375 302.84375 C-192.80767593 301.70087524 -192.43175812 300.55800049 -192.04444885 299.38049316 C-190.84899867 295.75135317 -189.64341232 292.12567533 -188.4375 288.5 C-187.62237419 286.03147202 -186.80791375 283.56272423 -185.99414062 281.09375 C-184.00379116 275.0599334 -182.0051217 269.02892261 -180 263 C-176.60010749 264.33519507 -173.32018048 265.80058318 -170.04101562 267.41137695 C-149.85757917 277.22395124 -127.26045732 282.48044454 -105 277 C-92.90573457 272.80137637 -84.79265264 265.3752687 -79.01953125 254.08203125 C-75.34676109 245.16737317 -75.55486432 233.17615468 -78.5625 224.0625 C-87.55860906 203.48662427 -108.38796534 194.51360368 -127.625 185.5 C-156.45205134 171.92908958 -178.53973182 152.16965435 -190.30419922 121.94140625 C-199.63994895 95.89302664 -196.16197549 64.84437777 -185.07275391 39.91552734 C-181.07235594 31.45667057 -176.12998329 24.08296389 -170 17 C-169.33355469 16.15179687 -168.66710937 15.30359375 -167.98046875 14.4296875 C-151.37141899 -5.94670097 -122.26860665 -17.17696583 -96.86914062 -19.77734375 C-64.67014251 -22.27610875 -27.34848392 -18.75913596 0 0 Z " fill="#FFFFFF" transform="translate(285,786)"/>
<path d="M0 0 C0.98355469 0.55558594 1.96710937 1.11117187 2.98046875 1.68359375 C30.60055664 18.30347347 47.73593065 46.61985317 55.61376953 77.39794922 C56.18966543 79.8013288 56.73079829 82.20876285 57.25 84.625 C57.47659302 85.67820435 57.47659302 85.67820435 57.70776367 86.75268555 C60.44098819 100.40030916 61.41092137 113.930343 61.375 127.8125 C61.37445618 128.61170868 61.37391235 129.41091736 61.37335205 130.23434448 C61.29186067 156.49706099 57.15392758 182.03459524 46 206 C45.57332031 206.95648437 45.14664063 207.91296875 44.70703125 208.8984375 C32.38559706 235.1979693 10.05173957 255.4586829 -17.0234375 265.71875 C-48.74290892 276.44715856 -86.15434994 275.23882652 -116.51953125 260.92578125 C-125.22701342 256.61690441 -132.8639195 251.64645162 -140 245 C-140.5151416 244.53110352 -141.0302832 244.06220703 -141.56103516 243.57910156 C-161.81296625 225.01533204 -173.41377207 200.18475229 -179.1875 173.5625 C-179.34259033 172.84835937 -179.49768066 172.13421875 -179.6574707 171.3984375 C-182.5329349 157.23266293 -183.3765229 143.28436228 -183.3125 128.875 C-183.31067719 128.02038177 -183.30885437 127.16576355 -183.30697632 126.2852478 C-183.25937772 113.00182664 -182.72981047 100.04184111 -180 87 C-179.82307617 86.14470703 -179.64615234 85.28941406 -179.46386719 84.40820312 C-177.05080409 73.13057145 -173.75489941 62.51205703 -169 52 C-168.72929688 51.39961914 -168.45859375 50.79923828 -168.1796875 50.18066406 C-162.35028802 37.42544767 -154.55828677 27.1721217 -145 17 C-144.47277344 16.39671875 -143.94554687 15.7934375 -143.40234375 15.171875 C-109.25517559 -22.20661086 -41.71336635 -23.84462846 0 0 Z M-85 45 C-108.38384378 73.53354421 -105.83099199 121.56245847 -102.734375 155.94970703 C-100.81489941 175.29284346 -97.89922587 196.68455494 -82.828125 210.6015625 C-73.25389241 217.92544128 -61.87182019 218.16835838 -50.30078125 216.64453125 C-41.91083345 214.40018256 -35.30573988 207.46814279 -30.6875 200.375 C-20.95530478 182.5326421 -18.88720428 161.02479018 -18.796875 141.05078125 C-18.79117493 140.03565964 -18.78547485 139.02053802 -18.77960205 137.97465515 C-18.77021669 135.8342694 -18.76364404 133.69386961 -18.75976562 131.5534668 C-18.75015954 128.36544687 -18.71911439 125.17810096 -18.6875 121.99023438 C-18.54996511 95.54199395 -19.55920868 64.57118921 -38.4375 44.0625 C-46.03899494 36.92325814 -54.19987036 35.63453326 -64.31640625 35.71875 C-72.38060999 36.33446863 -79.36542238 39.10930521 -85 45 Z " fill="#FFFFFF" transform="translate(2071,857)"/>
<path d="M0 0 C16.31535761 15.45665458 25.9699679 38.98235643 26.70398331 61.4210434 C26.79363758 66.16185861 26.77132182 70.90218344 26.75048828 75.64355469 C26.74992311 77.45810947 26.75024279 79.27266472 26.75137329 81.08721924 C26.75194368 85.97895538 26.74024055 90.87059209 26.72622538 95.76230526 C26.71366534 100.88720626 26.71254338 106.01210991 26.71017456 111.13702393 C26.70397522 120.82645477 26.68758545 130.51584011 26.66747558 140.20525098 C26.64506829 151.24279776 26.63411103 162.28034679 26.62408471 173.31791067 C26.60321777 196.0088406 26.56807204 218.69973024 26.5234375 241.390625 C24.95581231 242.18811504 23.38656052 242.9824081 21.81665039 243.77539062 C20.50610435 244.4393988 20.50610435 244.4393988 19.16908264 245.11682129 C-26.92419618 267.30943839 -98.01733489 269.16268264 -146.4765625 253.390625 C-167.38611726 246.05426746 -185.25971575 233.56889733 -195.4765625 213.390625 C-205.31388186 190.57908597 -206.0959085 162.89449438 -197.0390625 139.7109375 C-185.67788994 114.74913048 -161.92590059 99.97159216 -137.12353516 90.49121094 C-109.21626273 80.51970293 -78.85449028 76.3549641 -49.4765625 73.390625 C-49.15580219 63.36389523 -48.96887196 53.95705375 -52.4765625 44.390625 C-52.74726562 43.64296875 -53.01796875 42.8953125 -53.296875 42.125 C-56.78209919 34.93500993 -64.37489859 32.076931 -71.4765625 29.390625 C-101.00025352 19.17506565 -137.35149671 29.54621762 -164.84375 41.32421875 C-167.4765625 42.390625 -167.4765625 42.390625 -169.4765625 42.390625 C-171.90223794 36.02030213 -174.32279318 29.6480514 -176.73974609 23.27441406 C-177.56310259 21.10501758 -178.38764368 18.93607031 -179.21337891 16.76757812 C-180.39795382 13.65611365 -181.57830214 10.54307481 -182.7578125 7.4296875 C-183.12966675 6.45569 -183.501521 5.4816925 -183.88464355 4.47817993 C-184.22499634 3.57739716 -184.56534912 2.67661438 -184.91601562 1.74853516 C-185.2180188 0.95355621 -185.52002197 0.15857727 -185.83117676 -0.66049194 C-186.4765625 -2.609375 -186.4765625 -2.609375 -186.4765625 -4.609375 C-161.82523248 -14.07295444 -136.85103476 -22.05527218 -110.4765625 -24.609375 C-109.32542969 -24.72152344 -108.17429687 -24.83367188 -106.98828125 -24.94921875 C-69.80267263 -27.96873981 -29.52126295 -25.45234988 0 0 Z M-113.2890625 133.10546875 C-123.69232684 143.97316454 -127.67518038 156.43269645 -127.4765625 171.4921875 C-127.04973206 183.76067876 -124.81828391 196.30730787 -115.58984375 205.2109375 C-113.6158788 206.75443073 -111.62090152 208.09585268 -109.4765625 209.390625 C-108.87199219 209.76832031 -108.26742187 210.14601563 -107.64453125 210.53515625 C-93.07442716 218.72508844 -73.0221475 218.56997176 -57.2265625 214.453125 C-52.74377231 213.19587213 -52.74377231 213.19587213 -48.4765625 211.390625 C-48.4765625 178.390625 -48.4765625 145.390625 -48.4765625 111.390625 C-70.2091548 111.390625 -97.34896513 117.80399708 -113.2890625 133.10546875 Z " fill="#FFFFFF" transform="translate(720.4765625,867.609375)"/>
<path d="M0 0 C22.39630464 20.8639259 31.77504723 51.7103364 35.5 81.1875 C35.62785889 82.13488037 35.75571777 83.08226074 35.88745117 84.05834961 C36.83283061 92.30863137 36.81153263 100.49930074 36.78222656 108.79541016 C36.77990021 110.04832352 36.77757385 111.30123688 36.775177 112.59211731 C36.76913461 115.66559151 36.76067475 118.73903898 36.75 121.8125 C15.67999529 124.81386156 -5.39034666 127.81284514 -26.46109486 130.80898285 C-36.2441631 132.20013501 -46.02711864 133.59207091 -55.80981445 134.98583984 C-64.33445335 136.20036776 -72.85929825 137.41343744 -81.38439578 138.62474203 C-85.90010785 139.26641785 -90.41571197 139.90883321 -94.93107033 140.55299377 C-99.17834005 141.15888537 -103.42588182 141.76283143 -107.67364311 142.3652668 C-109.23505538 142.58706627 -110.79636567 142.80958495 -112.35756683 143.03286552 C-114.48447332 143.33694413 -116.61172719 143.63846385 -118.73908997 143.93933105 C-119.93096829 144.10894096 -121.12284662 144.27855087 -122.35084248 144.45330048 C-125.25 144.8125 -125.25 144.8125 -128.25 144.8125 C-124.58897408 162.76051899 -120.01231423 180.95365389 -104.625 192.5625 C-90.90099166 201.55193403 -76.29269458 203.20920108 -60.3125 203.125 C-59.21343323 203.12176727 -59.21343323 203.12176727 -58.09216309 203.11846924 C-36.25122404 203.0154066 -15.55502431 199.20557556 4.61889648 190.57983398 C6.75 189.8125 6.75 189.8125 9.75 189.8125 C11.67304517 195.00364592 13.59350503 200.19573871 15.51171875 205.38867188 C16.16272575 207.14999318 16.81440183 208.91106736 17.46679688 210.671875 C21.0476147 220.3378863 24.59716467 229.99650716 27.75 239.8125 C20.75325483 243.54825359 13.72487606 246.42314129 6.1875 248.875 C5.12958252 249.22006592 4.07166504 249.56513184 2.98168945 249.9206543 C-39.83503796 263.66634171 -95.48652352 267.50083796 -136.8125 246.875 C-139.31974787 245.56805339 -141.79195185 244.2095452 -144.25 242.8125 C-145.26707031 242.235 -146.28414062 241.6575 -147.33203125 241.0625 C-154.00660691 237.02974939 -159.63464456 232.19921719 -165.25 226.8125 C-166.37535156 225.78189453 -166.37535156 225.78189453 -167.5234375 224.73046875 C-192.50633306 201.10629207 -204.31438169 163.53049599 -205.37255859 129.91967773 C-206.06175713 97.2772119 -204.03069498 65.56966076 -189.25 35.8125 C-188.71761719 34.69875 -188.18523437 33.585 -187.63671875 32.4375 C-174.58775612 6.5264334 -151.83273262 -11.44977323 -124.75 -21 C-83.58086626 -33.89792481 -33.11969619 -29.44921439 0 0 Z M-117.5 36.09765625 C-134.22616625 55.57983853 -134.25 81.45516949 -134.25 105.8125 C-102.9 101.1925 -71.55 96.5725 -39.25 91.8125 C-35.84921519 74.80857593 -40.87742897 52.20393165 -50.25 37.8125 C-57.08016841 29.24177901 -65.28191765 23.48476368 -76.25 21.8125 C-92.61165031 20.63554166 -105.76323554 24.17750485 -117.5 36.09765625 Z " fill="#FFFFFF" transform="translate(1367.25,869.1875)"/>
<path d="M0 0 C0 26.07 0 52.14 0 79 C13.86 79 27.72 79 42 79 C42 96.49 42 113.98 42 132 C28.14 132 14.28 132 0 132 C0.04034421 151.62850343 0.09718068 171.25673479 0.18390274 190.8850832 C0.22364768 199.99964491 0.25606321 209.11412084 0.27099609 218.22875977 C0.28403623 226.17661083 0.31106094 234.12427282 0.35461307 242.07201737 C0.37717497 246.27713024 0.39291386 250.48201034 0.39188385 254.6871891 C0.3911341 258.65260692 0.40920996 262.61751125 0.44116783 266.5827961 C0.44962336 268.03106592 0.45144658 269.47939364 0.44580269 270.92767715 C0.41227962 280.85998819 1.21142925 290.27081388 7.3125 298.5 C12.59441523 303.41340952 17.82830005 304.48353641 24.875 304.3125 C26.19242188 304.30863281 27.50984375 304.30476563 28.8671875 304.30078125 C33.85835927 304.03828108 33.85835927 304.03828108 42 302 C42 318.83 42 335.66 42 353 C27.86975504 357.71008165 16.8370987 360.38884767 2.3125 360.3125 C0.61130005 360.30404053 0.61130005 360.30404053 -1.12426758 360.29541016 C-23.2092735 359.97863311 -43.42330845 354.34465239 -59.75 338.75 C-73.50756479 324.38490742 -81.13587844 304.97325518 -81.12025452 285.08399963 C-81.12110894 284.42465028 -81.12196337 283.76530093 -81.12284368 283.0859713 C-81.12447894 280.89655984 -81.11900943 278.70722656 -81.11352539 276.51782227 C-81.11324307 274.94045514 -81.11340213 273.36308788 -81.1139679 271.78572083 C-81.11425412 267.51766483 -81.10838566 263.24963709 -81.10139394 258.98158765 C-81.09513128 254.51596041 -81.0945543 250.05033249 -81.09336853 245.58470154 C-81.0902638 237.13467863 -81.08206198 228.6846687 -81.07201904 220.23465151 C-81.06083125 210.61194127 -81.05534074 200.9892304 -81.05032361 191.36651528 C-81.03987864 171.57766801 -81.02154383 151.78883852 -81 132 C-90.9 132 -100.8 132 -111 132 C-111 114.51 -111 97.02 -111 79 C-101.1 79 -91.2 79 -81 79 C-81 59.53 -81 40.06 -81 20 C-61.6541843 15.0086815 -61.6541843 15.0086815 -53.41992188 12.890625 C-47.79657973 11.44414027 -42.17345009 9.99686196 -36.55151367 8.54492188 C-32.02009281 7.37467435 -27.48778254 6.20793325 -22.95482826 5.04364014 C-21.22371445 4.59834114 -19.49292745 4.15176965 -17.76247215 3.70391846 C-15.34273951 3.07790806 -12.9218949 2.45639111 -10.50073242 1.8359375 C-9.78216064 1.64892273 -9.06358887 1.46190796 -8.32324219 1.26922607 C-5.45985493 0.53960888 -2.96910348 0 0 0 Z " fill="#FFFFFF" transform="translate(1088,768)"/>
<path d="M0 0 C0 26.07 0 52.14 0 79 C14.19 79 28.38 79 43 79 C43 96.49 43 113.98 43 132 C28.81 132 14.62 132 0 132 C0.08564795 150.40316707 0.17934752 168.80623665 0.28752708 187.20928383 C0.33750957 195.75539003 0.3839533 204.30148732 0.421875 212.84765625 C0.45496192 220.30217105 0.49488343 227.75661367 0.54279006 235.21104848 C0.56789026 239.15294944 0.58971875 243.09480353 0.60334396 247.03676224 C0.61631573 250.75828766 0.63852723 254.47965098 0.66738319 258.20108604 C0.68056646 260.1950757 0.68435099 262.18912082 0.68769836 264.18315125 C0.49298478 282.59215583 0.49298478 282.59215583 8.41796875 298.51953125 C13.80457747 303.3245524 18.71914061 304.32989613 25.75 304.25 C26.41515625 304.25773437 27.0803125 304.26546875 27.765625 304.2734375 C33.28920591 304.25219296 37.36450197 303.2523329 43 302 C43 318.83 43 335.66 43 353 C28.86975504 357.71008165 17.8370987 360.38884767 3.3125 360.3125 C1.61130005 360.30404053 1.61130005 360.30404053 -0.12426758 360.29541016 C-21.81540108 359.98428263 -42.86785806 354.41515785 -59 339 C-72.11503756 325.08425488 -80.1351653 305.28191462 -80.12025452 286.16629028 C-80.12110894 285.5037118 -80.12196337 284.84113333 -80.12284368 284.15847671 C-80.12448262 281.95214001 -80.11900326 279.7458804 -80.11352539 277.53955078 C-80.11324315 275.95247906 -80.11340197 274.36540721 -80.1139679 272.77833557 C-80.11425443 268.47922972 -80.10838091 264.18015185 -80.10139394 259.88105249 C-80.09513649 255.38472289 -80.09455471 250.88839262 -80.09336853 246.39205933 C-80.09026227 237.88179602 -80.08205838 229.37154559 -80.07201904 220.86128795 C-80.06083602 211.17088754 -80.05534193 201.48048652 -80.05032361 191.79008126 C-80.03987518 171.8600454 -80.02153845 151.93002718 -80 132 C-90.23 132 -100.46 132 -111 132 C-111 114.51 -111 97.02 -111 79 C-100.77 79 -90.54 79 -80 79 C-80 59.53 -80 40.06 -80 20 C-60.61407549 15.0086815 -60.61407549 15.0086815 -52.37109375 12.890625 C-46.73906243 11.44344485 -41.10717149 9.99573285 -35.47607422 8.54492188 C-30.9379039 7.37573032 -26.39914076 6.20886744 -21.85995102 5.04364014 C-20.12532962 4.59791541 -18.3909262 4.15134154 -16.6567421 3.70391846 C-14.23412942 3.07903163 -11.81077033 2.45712552 -9.38720703 1.8359375 C-8.66503998 1.64892273 -7.94287292 1.46190796 -7.19882202 1.26922607 C-2.22810432 0 -2.22810432 0 0 0 Z " fill="#FFFFFF" transform="translate(441,768)"/>
<path d="M0 0 C-0.653132 6.69000173 -2.14716199 12.97531462 -3.87109375 19.46484375 C-4.29467918 21.07571617 -4.29467918 21.07571617 -4.7268219 22.71913147 C-5.32180033 24.97467523 -5.91949958 27.22950285 -6.51977539 29.48364258 C-7.44033536 32.94817088 -8.34653772 36.41625275 -9.25195312 39.88476562 C-9.83246799 42.07835419 -10.41381849 44.27172182 -10.99609375 46.46484375 C-11.40244301 48.02717995 -11.40244301 48.02717995 -11.81700134 49.62107849 C-12.07389236 50.57619827 -12.33078339 51.53131805 -12.59545898 52.51538086 C-12.81894516 53.35951035 -13.04243134 54.20363983 -13.27268982 55.073349 C-14 57 -14 57 -16 58 C-17.77146714 57.46202088 -19.51843189 56.84262537 -21.25 56.1875 C-37.16632697 50.71744968 -50.9123733 51.61246544 -67 56 C-67.33 130.25 -67.66 204.5 -68 281 C-94.73 281 -121.46 281 -149 281 C-149 194.87 -149 108.74 -149 20 C-134.99208783 12.99604392 -134.99208783 12.99604392 -127.75 10.9375 C-126.48663818 10.57144653 -126.48663818 10.57144653 -125.19775391 10.19799805 C-84.26417702 -1.32274484 -42.17701802 -2.15821431 0 0 Z " fill="#FFFFFF" transform="translate(1602,843)"/>
<path d="M0 0 C-2.94101556 12.94110873 -6.27996995 25.75417316 -9.75 38.5625 C-10.26196709 40.46021948 -10.77368719 42.35800561 -11.28515625 44.25585938 C-12.52060293 48.83800986 -13.75934853 53.41925614 -15 58 C-16.81310669 57.47490845 -16.81310669 57.47490845 -18.6628418 56.93920898 C-20.27904571 56.47869353 -21.89534306 56.0185059 -23.51171875 55.55859375 C-24.30477417 55.32797241 -25.09782959 55.09735107 -25.91491699 54.85974121 C-39.88863927 50.90761346 -53.21232008 51.40410669 -67 56 C-67.33 130.25 -67.66 204.5 -68 281 C-94.73 281 -121.46 281 -149 281 C-149 194.54 -149 108.08 -149 19 C-129.14543037 10.82458897 -129.14543037 10.82458897 -121.375 8.8125 C-120.46387451 8.57112305 -119.55274902 8.32974609 -118.61401367 8.08105469 C-79.82114942 -1.86634302 -39.7344452 -1.91810905 0 0 Z " fill="#FFFFFF" transform="translate(956,843)"/>
</svg>
