<svg width="19" height="18" viewBox="0 0 19 18" fill="none" xmlns="http://www.w3.org/2000/svg">
<path d="M14.5304 17.3754C14.3905 17.376 14.2525 17.343 14.1279 17.2792L9.66544 14.9429L5.20294 17.2792C5.05804 17.3554 4.89466 17.3894 4.73138 17.3773C4.56811 17.3653 4.41148 17.3077 4.27932 17.2111C4.14715 17.1145 4.04474 16.9827 3.98373 16.8308C3.92272 16.6789 3.90556 16.5129 3.93419 16.3517L4.80919 11.4254L1.20419 7.92542C1.09172 7.81318 1.01193 7.67243 0.973391 7.51828C0.934853 7.36413 0.939019 7.20239 0.985442 7.05042C1.03616 6.89491 1.12945 6.75673 1.25472 6.65156C1.38 6.54639 1.53225 6.47844 1.69419 6.45542L6.68169 5.72917L8.87794 1.24042C8.94959 1.09249 9.06146 0.967722 9.20074 0.880424C9.34002 0.793127 9.50107 0.746826 9.66544 0.746826C9.82982 0.746826 9.99087 0.793127 10.1301 0.880424C10.2694 0.967722 10.3813 1.09249 10.4529 1.24042L12.6754 5.72042L17.6629 6.44667C17.8249 6.46969 17.9771 6.53764 18.1024 6.64281C18.2277 6.74798 18.321 6.88616 18.3717 7.04167C18.4181 7.19364 18.4223 7.35537 18.3837 7.50953C18.3452 7.66368 18.2654 7.80443 18.1529 7.91667L14.5479 11.4167L15.4229 16.3429C15.4542 16.507 15.4378 16.6765 15.3758 16.8316C15.3138 16.9866 15.2087 17.1207 15.0729 17.2179C14.9145 17.329 14.7237 17.3843 14.5304 17.3754ZM9.66544 13.0879C9.8057 13.0844 9.94446 13.1176 10.0679 13.1842L13.3667 14.9342L12.7367 11.2504C12.7122 11.1098 12.7226 10.9653 12.7668 10.8295C12.8111 10.6938 12.8878 10.5709 12.9904 10.4717L15.6154 7.90792L11.9404 7.36542C11.8057 7.33829 11.6792 7.27979 11.5713 7.19465C11.4633 7.10952 11.377 7.00016 11.3192 6.87542L9.66544 3.59417L8.01169 6.87542C7.94838 7.00116 7.85567 7.10977 7.74142 7.19203C7.62718 7.27429 7.49477 7.32776 7.35544 7.34792L3.68044 7.89042L6.30544 10.4542C6.40806 10.5534 6.48483 10.6763 6.52906 10.812C6.57329 10.9478 6.58363 11.0923 6.55919 11.2329L5.92919 14.8729L9.22794 13.1229C9.36772 13.071 9.51918 13.0588 9.66544 13.0879Z" fill="#231F20"/>
</svg>
