<svg width="12" height="14" viewBox="0 0 12 14" fill="none" xmlns="http://www.w3.org/2000/svg">
<path fill-rule="evenodd" clip-rule="evenodd" d="M11.82 3.74683L11.7267 3.58016C11.6063 3.37862 11.4365 3.21112 11.2333 3.0935L6.76 0.513496C6.55746 0.395996 6.32753 0.333909 6.09333 0.333496H5.9C5.6658 0.333909 5.43586 0.395996 5.23333 0.513496L0.76 3.10016C0.55798 3.217 0.390173 3.38481 0.273333 3.58683L0.18 3.7535C0.0625 3.95606 0.000413333 4.18599 0 4.42016V9.58683C0.000413333 9.82103 0.0625 10.051 0.18 10.2535L0.273333 10.4202C0.393193 10.6198 0.560326 10.787 0.76 10.9068L5.24 13.4868C5.44153 13.6068 5.67213 13.669 5.90666 13.6668H6.09333C6.32753 13.6664 6.55746 13.6044 6.76 13.4868L11.2333 10.9002C11.4373 10.786 11.6058 10.6175 11.72 10.4135L11.82 10.2468C11.9361 10.0437 11.9981 9.81416 12 9.58016V4.4135C11.9996 4.17932 11.9375 3.94939 11.82 3.74683ZM5.9 1.66683H6.09333L10 3.92016L6 6.22683L2 3.92016L5.9 1.66683ZM6.66666 12.0002L10.5667 9.74683L10.6667 9.58016V5.0735L6.66666 7.38683V12.0002Z" fill="black"/>
</svg>
