<svg width="31" height="32" viewBox="0 0 31 32" fill="none" xmlns="http://www.w3.org/2000/svg">
<path d="M28.2769 16.0398C28.2793 17.7929 27.9185 19.5275 27.2173 21.1343M15.5408 28.7759C17.2137 28.7783 18.8705 28.4499 20.416 27.8097C21.9616 27.1695 23.3653 26.2301 24.5465 25.0455M2.8047 16.0398C2.80236 14.367 3.13073 12.7101 3.77093 11.1646C4.41113 9.61907 5.35052 8.21535 6.53511 7.03413M15.5408 3.30372C13.7877 3.30133 12.0531 3.66213 10.4464 4.36337M10.4464 27.7163C7.50191 26.4292 5.1514 24.0787 3.86434 21.1343M20.4213 4.57733C23.3657 5.86439 25.7163 8.2149 27.0033 11.1594" stroke="#2B2F36" stroke-width="2.54722" stroke-linecap="round" stroke-linejoin="round"/>
<path fill-rule="evenodd" clip-rule="evenodd" d="M9.86578 16.1607C9.86535 14.6831 10.4294 13.2612 11.4425 12.1857C12.4556 11.1101 13.8413 10.4622 15.3162 10.3743C16.7912 10.2865 18.244 10.7654 19.3776 11.7131C20.5112 12.6608 21.24 14.0058 21.4149 15.473C18.5225 15.5379 16.3943 16.1824 14.8647 17.1083C16.2466 17.5897 17.6284 18.4048 18.6945 19.7306C18.8532 19.9281 18.927 20.1805 18.8997 20.4324C18.8723 20.6842 18.7461 20.9149 18.5486 21.0737C18.3512 21.2324 18.0988 21.3063 17.8469 21.2789C17.595 21.2516 17.3644 21.1253 17.2056 20.9278C16.1995 19.6784 14.7768 18.9869 13.3224 18.6494C12.3377 18.425 11.3258 18.3435 10.3179 18.4074C10.0187 17.6962 9.86492 16.9323 9.86578 16.1607ZM15.6607 8.06055C14.597 8.06055 13.5437 8.27006 12.5609 8.67714C11.5782 9.08421 10.6852 9.68086 9.93303 10.433C9.18086 11.1852 8.58421 12.0782 8.17714 13.0609C7.77006 14.0437 7.56055 15.097 7.56055 16.1607C7.56055 17.2244 7.77006 18.2778 8.17714 19.2605C8.58421 20.2433 9.18086 21.1362 9.93303 21.8884C10.6852 22.6406 11.5782 23.2372 12.5609 23.6443C13.5437 24.0514 14.597 24.2609 15.6607 24.2609C17.809 24.2609 19.8693 23.4075 21.3884 21.8884C22.9075 20.3693 23.7609 18.309 23.7609 16.1607C23.7609 14.0124 22.9075 11.9521 21.3884 10.433C19.8693 8.91395 17.809 8.06055 15.6607 8.06055ZM13.2294 11.9922C12.9441 11.9922 12.5327 12.0724 12.1723 12.3322C11.7775 12.6175 11.4922 13.0862 11.4922 13.7294C11.4922 14.3726 11.7762 14.8413 12.1723 15.1265C12.5327 15.3864 12.9441 15.4666 13.2294 15.4666C13.5147 15.4666 13.9261 15.3864 14.2865 15.1265C14.6826 14.8413 14.9666 14.3726 14.9666 13.7294C14.9666 13.0862 14.6826 12.6175 14.2865 12.3322C13.977 12.1138 13.6082 11.9951 13.2294 11.9922Z" fill="#2B2F36"/>
</svg>
