<svg width="32" height="31" viewBox="0 0 32 31" fill="none" xmlns="http://www.w3.org/2000/svg">
<path d="M7.74348 4.12783C6.61514 4.37857 5.58829 5.22035 5.09278 6.30093C4.73458 7.07704 4.74055 6.98152 4.75846 13.1307C4.78234 19.3634 4.75249 18.9157 5.17039 19.7634C5.63008 20.6947 6.56738 21.4529 7.61214 21.7514C7.97632 21.8529 8.35243 21.8589 13.6717 21.8589H19.3433L19.791 21.7216C20.4478 21.5186 20.9612 21.2082 21.4388 20.7305C21.9164 20.2529 22.2268 19.7395 22.4298 19.0828L22.5671 18.6351V12.9635C22.5671 6.62928 22.591 6.97555 22.1432 6.12183C21.6537 5.1905 20.8657 4.53976 19.791 4.18156C19.4806 4.0741 19.1284 4.06813 13.7911 4.05619C9.16436 4.05022 8.04796 4.06216 7.74348 4.12783ZM13.9882 9.18447C14.3702 9.27999 14.7881 9.69789 14.8837 10.08C14.9255 10.2352 14.9553 10.6591 14.9553 11.0173V11.6799H15.7195C16.5851 11.6799 16.8299 11.7576 17.1463 12.1158C17.6836 12.7247 17.5165 13.668 16.806 14.068C16.5672 14.1993 16.4598 14.2172 15.7493 14.2351L14.9672 14.259L14.9434 15.0411C14.9255 15.7515 14.9075 15.859 14.7762 16.0978C14.5493 16.4978 14.2031 16.7127 13.7374 16.7426C13.3135 16.7724 13.021 16.659 12.7344 16.3545C12.4479 16.056 12.3882 15.8172 12.3882 14.9933V14.2471H11.7255C10.836 14.2471 10.5793 14.1754 10.233 13.8292C9.60614 13.2023 9.75539 12.2292 10.5434 11.8352C10.836 11.6919 10.9196 11.6799 11.624 11.6799H12.3882V10.9158C12.3882 10.2113 12.4001 10.1277 12.5434 9.8352C12.7106 9.50088 13.015 9.25014 13.3553 9.17253C13.6359 9.10685 13.6777 9.10685 13.9882 9.18447Z" fill="#7950F2"/>
<path d="M25.8148 8.02676C25.5819 8.14616 25.4446 8.27153 25.3133 8.48645L25.1342 8.77302L25.1043 15.0774L25.0745 21.3818L24.9431 21.7698C24.5491 22.9101 23.6178 23.8414 22.4775 24.2355L22.0895 24.3668L15.7911 24.3966L9.49265 24.4265L9.21206 24.5937C8.71058 24.8862 8.47177 25.4892 8.627 26.0563C8.71655 26.4085 9.11057 26.7966 9.4628 26.8981C9.67175 26.9518 11.1523 26.9638 16 26.9518L22.2686 26.9339L22.8536 26.7727C25.1581 26.1399 26.8476 24.4563 27.4804 22.1459L27.6416 21.5609L27.6595 15.2923C27.6715 10.4446 27.6595 8.96406 27.6058 8.75511C27.5103 8.42078 27.1342 8.03273 26.7998 7.93124C26.4178 7.81781 26.161 7.84169 25.8148 8.02676Z" fill="#7950F2"/>
</svg>
