<svg width="31" height="31" viewBox="0 0 31 31" fill="none" xmlns="http://www.w3.org/2000/svg">
<path d="M20.43 10.8608L9.12667 22.1959C8.87194 22.4507 8.56925 22.578 8.21858 22.578C7.86876 22.578 7.56649 22.4507 7.31177 22.1959C7.05705 21.9412 6.92969 21.6385 6.92969 21.2878C6.92969 20.938 7.05705 20.6358 7.31177 20.381L18.6469 9.07774H8.96747C8.60661 9.07774 8.30391 8.9559 8.05938 8.71221C7.8157 8.46768 7.69385 8.16499 7.69385 7.80413C7.69385 7.44327 7.8157 7.14058 8.05938 6.89604C8.30391 6.65236 8.60661 6.53052 8.96747 6.53052H21.7036C22.0644 6.53052 22.3667 6.65236 22.6104 6.89604C22.8549 7.14058 22.9772 7.44327 22.9772 7.80413V20.5402C22.9772 20.9011 22.8549 21.2034 22.6104 21.4471C22.3667 21.6916 22.0644 21.8139 21.7036 21.8139C21.3427 21.8139 21.0405 21.6916 20.7968 21.4471C20.5522 21.2034 20.43 20.9011 20.43 20.5402V10.8608Z" fill="black"/>
</svg>
