<svg width="31" height="32" viewBox="0 0 31 32" fill="none" xmlns="http://www.w3.org/2000/svg">
<path d="M11.6673 15.3907C11.6291 15.3907 11.6037 15.3907 11.5654 15.3907C11.5018 15.378 11.4126 15.378 11.3362 15.3907C7.64272 15.2761 4.85352 12.3722 4.85352 8.79339C4.85352 5.15086 7.82103 2.18335 11.4636 2.18335C15.1061 2.18335 18.0736 5.15086 18.0736 8.79339C18.0609 12.3722 15.2589 15.2761 11.7055 15.3907C11.6928 15.3907 11.6801 15.3907 11.6673 15.3907ZM11.4636 4.09377C8.87813 4.09377 6.76393 6.20796 6.76393 8.79339C6.76393 11.3406 8.75077 13.3911 11.2853 13.4803C11.3617 13.4675 11.5272 13.4675 11.6928 13.4803C14.1891 13.3657 16.1504 11.3151 16.1632 8.79339C16.1632 6.20796 14.049 4.09377 11.4636 4.09377Z" fill="#2B2F36"/>
<path d="M21.0678 15.5563C21.0296 15.5563 20.9914 15.5563 20.9532 15.5435C20.431 15.5945 19.8961 15.2251 19.8452 14.703C19.7942 14.1808 20.1126 13.7095 20.6348 13.6459C20.7876 13.6331 20.9532 13.6331 21.0933 13.6331C22.9528 13.5312 24.4047 12.0029 24.4047 10.1307C24.4047 8.19481 22.8382 6.62827 20.9023 6.62827C20.3801 6.64101 19.9471 6.20798 19.9471 5.6858C19.9471 5.16362 20.3801 4.73059 20.9023 4.73059C23.8825 4.73059 26.3151 7.16319 26.3151 10.1434C26.3151 13.0727 24.0226 15.4417 21.106 15.5563C21.0933 15.5563 21.0806 15.5563 21.0678 15.5563Z" fill="#2B2F36"/>
<path d="M11.6803 29.3113C9.18402 29.3113 6.67501 28.6745 4.77733 27.4009C3.00701 26.2291 2.03906 24.6244 2.03906 22.8795C2.03906 21.1347 3.00701 19.5172 4.77733 18.3327C8.59816 15.7983 14.7879 15.7983 18.5833 18.3327C20.3409 19.5045 21.3215 21.1092 21.3215 22.8541C21.3215 24.5989 20.3536 26.2164 18.5833 27.4009C16.6729 28.6745 14.1766 29.3113 11.6803 29.3113ZM5.83442 19.9375C4.61176 20.7526 3.94948 21.797 3.94948 22.8923C3.94948 23.9748 4.62449 25.0192 5.83442 25.8216C9.00572 27.9485 14.3549 27.9485 17.5262 25.8216C18.7488 25.0065 19.4111 23.9621 19.4111 22.8668C19.4111 21.7842 18.7361 20.7399 17.5262 19.9375C14.3549 17.8233 9.00572 17.8233 5.83442 19.9375Z" fill="#2B2F36"/>
<path d="M23.3603 27.0187C22.9145 27.0187 22.5197 26.7131 22.4305 26.2546C22.3286 25.7324 22.6598 25.2357 23.1692 25.121C23.9716 24.9555 24.7103 24.6371 25.2834 24.1913C26.0094 23.6437 26.4042 22.9559 26.4042 22.2299C26.4042 21.504 26.0094 20.8162 25.2962 20.2813C24.7358 19.8483 24.0353 19.5426 23.2074 19.3516C22.698 19.237 22.3668 18.7275 22.4815 18.2053C22.5961 17.6959 23.1055 17.3648 23.6277 17.4794C24.723 17.7214 25.6782 18.1544 26.4551 18.753C27.6396 19.6445 28.3146 20.9054 28.3146 22.2299C28.3146 23.5545 27.6269 24.8154 26.4424 25.7196C25.6528 26.331 24.6593 26.7767 23.564 26.9932C23.4876 27.0187 23.4239 27.0187 23.3603 27.0187Z" fill="#2B2F36"/>
</svg>
