<svg width="32" height="30" viewBox="0 0 32 30" fill="none" xmlns="http://www.w3.org/2000/svg">
<path d="M4.31471 9.19031C3.16185 9.19031 2.21326 10.0879 2.21326 11.2122V24.6381C2.21326 25.7623 3.16185 26.66 4.31471 26.66H27.2397C28.3925 26.66 29.3412 25.7623 29.3412 24.6381V11.2122C29.3412 10.0879 28.3925 9.19031 27.2397 9.19031H4.31471ZM3.86895 11.2122C3.86895 10.9882 4.06078 10.7929 4.31471 10.7929H27.2397C27.4936 10.7929 27.6855 10.9882 27.6855 11.2122V24.6381C27.6855 24.8621 27.4936 25.0574 27.2397 25.0574H4.31471C4.06079 25.0574 3.86895 24.8621 3.86895 24.6381V11.2122Z" fill="#2B2F36" stroke="#2B2F36" stroke-width="0.382083"/>
<path d="M12.8512 12.9424L12.8512 12.9424C13.1229 12.8069 13.4503 12.8272 13.7021 12.9961C13.7021 12.9961 13.7021 12.9961 13.7021 12.9961L20.0701 17.268L20.0702 17.268L19.9638 17.4267C20.134 17.5408 20.2354 17.7274 20.2354 17.9266C20.2354 18.1258 20.134 18.3124 19.9638 18.4265L12.8512 12.9424ZM12.8512 12.9424C12.5786 13.0785 12.4027 13.3517 12.4027 13.6547V22.1985C12.4027 22.5015 12.5786 22.7747 12.8512 22.9108L12.9365 22.7398L12.8512 12.9424ZM14.0584 15.185L18.1452 17.9266L14.0584 20.6682V15.185Z" fill="#2B2F36" stroke="#2B2F36" stroke-width="0.382083"/>
<path d="M25.9637 7.74252H26.1548V7.55148V6.33093V6.13989H25.9637H5.58594H5.3949V6.33093V7.55148V7.74252H5.58594H25.9637Z" fill="#2B2F36" stroke="#2B2F36" stroke-width="0.382083"/>
<path d="M23.4181 4.69125H23.6091V4.50021V3.27966V3.08862H23.4181H8.13477H7.94372V3.27966V4.50021V4.69125H8.13477H23.4181Z" fill="#2B2F36" stroke="#2B2F36" stroke-width="0.382083"/>
</svg>
