<svg width="21" height="17" viewBox="0 0 21 17" fill="none" xmlns="http://www.w3.org/2000/svg">
<path d="M20.1353 2.54079C19.3998 2.87511 18.607 3.09481 17.7855 3.19988C18.6261 2.69362 19.2756 1.89125 19.5813 0.926486C18.7885 1.40409 17.9097 1.73841 16.9831 1.92945C16.2285 1.10798 15.1682 0.630371 13.9647 0.630371C11.7199 0.630371 9.88592 2.46437 9.88592 4.72821C9.88592 5.05299 9.92412 5.36821 9.99099 5.66432C6.59045 5.49238 3.56244 3.85898 1.54695 1.38499C1.19352 1.98677 0.992927 2.69362 0.992927 3.43868C0.992927 4.86194 1.70933 6.12282 2.81737 6.83923C2.13918 6.83923 1.50874 6.64818 0.954719 6.36162V6.39028C0.954719 8.37711 2.36843 10.0392 4.24064 10.4117C3.63955 10.5762 3.00851 10.5991 2.39708 10.4786C2.65652 11.2929 3.16463 12.0054 3.84997 12.516C4.53531 13.0265 5.36343 13.3095 6.21792 13.3251C4.76947 14.4718 2.97403 15.0916 1.12666 15.0827C0.801885 15.0827 0.477115 15.0636 0.152344 15.0254C1.96724 16.1907 4.12601 16.8689 6.43761 16.8689C13.9647 16.8689 18.1007 10.6219 18.1007 5.20582C18.1007 5.02433 18.1007 4.85239 18.0912 4.6709C18.8935 4.09778 19.5813 3.37182 20.1353 2.54079Z" fill="white"/>
</svg>
