<svg width="32" height="31" viewBox="0 0 32 31" fill="none" xmlns="http://www.w3.org/2000/svg">
<path d="M14.3491 2.07136C13.4297 2.2027 12.2297 2.67434 11.4477 3.20567C11.2387 3.34298 10.8626 3.6594 10.5999 3.91014C8.87457 5.5519 8.13428 7.89813 8.61786 10.2145C9.08352 12.4652 10.8805 14.4891 13.0775 15.2234C13.9073 15.504 14.3491 15.5756 15.3043 15.5756C16.9162 15.5816 18.2058 15.1637 19.4535 14.2383C22.3609 12.0712 23.0534 8.07127 21.0356 5.02057C20.7012 4.51311 19.8177 3.61761 19.3042 3.26537C17.8714 2.27435 16.0327 1.82659 14.3491 2.07136Z" fill="#2B2F36"/>
<path d="M8.19979 15.1567C6.81474 16.0642 5.95505 17.2045 5.53714 18.691C5.4058 19.1567 5.39983 19.2582 5.37595 22.5417C5.35804 25.0193 5.37595 26.0043 5.42371 26.2431C5.63267 27.1924 6.33713 27.9804 7.31025 28.3446C7.66248 28.4819 7.66248 28.4819 12.3967 28.4998C14.9937 28.5058 17.125 28.4998 17.125 28.4759C17.125 28.452 16.737 28.0341 16.2594 27.5506C15.5489 26.8342 15.3579 26.6013 15.2086 26.2789C14.534 24.8342 15.131 23.1745 16.5698 22.4939C17.0235 22.279 17.0534 22.273 17.7519 22.273C18.4563 22.273 18.4742 22.279 18.9339 22.4939C19.2921 22.6671 19.519 22.8342 19.9488 23.2521L20.4981 23.7894L22.0802 22.2133C23.5369 20.7626 23.698 20.6193 24.11 20.4283C24.4025 20.291 24.6891 20.2014 24.9398 20.1775L25.3219 20.1358L25.2861 19.6701C25.1906 18.4403 24.6413 17.1806 23.7876 16.2313C23.4413 15.8433 22.9219 15.4314 22.2712 15.0194L21.7757 14.703L21.4354 15.0314C20.1638 16.2672 18.5041 17.097 16.7131 17.3836C16.0564 17.491 14.7191 17.503 14.0803 17.4074C12.9997 17.2463 11.8176 16.8343 10.9162 16.297C10.3132 15.9388 9.52514 15.3418 9.155 14.9657C9.02962 14.8284 8.90425 14.7209 8.88634 14.7209C8.86843 14.7209 8.56396 14.9179 8.19979 15.1567Z" fill="#2B2F36"/>
<path d="M24.8572 22.1778C24.7617 22.2375 23.7528 23.2225 22.6184 24.3569C21.4841 25.4912 20.5349 26.4225 20.4991 26.4225C20.4633 26.4225 19.9439 25.927 19.3409 25.324C18.4096 24.3927 18.2006 24.2136 17.9917 24.1598C17.1439 23.9449 16.517 24.8464 17.0006 25.5927C17.2633 25.9986 19.8603 28.5478 20.123 28.6553C20.4036 28.7747 20.5946 28.7747 20.8752 28.6613C21.1379 28.5478 25.8124 23.921 26.087 23.5031C26.3855 23.0434 26.2781 22.4942 25.8423 22.1957C25.5856 22.0226 25.1139 22.0166 24.8572 22.1778Z" fill="#2B2F36"/>
</svg>
