<svg width="31" height="32" viewBox="0 0 31 32" fill="none" xmlns="http://www.w3.org/2000/svg">
<path d="M19.3515 29.566H11.7099C10.0287 29.566 8.62772 29.4005 7.44326 29.0438C7.01023 28.9165 6.73004 28.4961 6.75551 28.0504C7.07391 24.2423 10.933 21.2493 15.5307 21.2493C20.1284 21.2493 23.9747 24.2296 24.3059 28.0504C24.3441 28.5089 24.0639 28.9165 23.6181 29.0438C22.4337 29.4005 21.0327 29.566 19.3515 29.566ZM8.80602 27.4136C9.64661 27.5791 10.6018 27.6556 11.7099 27.6556H19.3515C20.4596 27.6556 21.4148 27.5791 22.2554 27.4136C21.5803 24.9682 18.7911 23.1597 15.5307 23.1597C12.2702 23.1597 9.48104 24.9682 8.80602 27.4136Z" fill="#2B2F36"/>
<path d="M19.3519 3.13855H11.7102C5.34214 3.13855 2.79492 5.68577 2.79492 12.0538V19.6955C2.79492 24.5097 4.24684 27.1461 7.71106 28.1268C7.99126 24.8154 11.3918 22.2045 15.531 22.2045C19.6703 22.2045 23.0708 24.8154 23.351 28.1268C26.8152 27.1461 28.2671 24.5097 28.2671 19.6955V12.0538C28.2671 5.68577 25.7199 3.13855 19.3519 3.13855ZM15.531 18.6384C13.0093 18.6384 10.9715 16.5879 10.9715 14.0662C10.9715 11.5444 13.0093 9.50661 15.531 9.50661C18.0528 9.50661 20.0906 11.5444 20.0906 14.0662C20.0906 16.5879 18.0528 18.6384 15.531 18.6384Z" stroke="#2B2F36" stroke-width="1.97896" stroke-linecap="round" stroke-linejoin="round"/>
<path d="M15.5304 19.5936C12.4864 19.5936 10.0156 17.1101 10.0156 14.0661C10.0156 11.0222 12.4864 8.55139 15.5304 8.55139C18.5743 8.55139 21.0451 11.0222 21.0451 14.0661C21.0451 17.1101 18.5743 19.5936 15.5304 19.5936ZM15.5304 10.4618C13.5435 10.4618 11.926 12.0793 11.926 14.0661C11.926 16.0657 13.5435 17.6832 15.5304 17.6832C17.5172 17.6832 19.1347 16.0657 19.1347 14.0661C19.1347 12.0793 17.5172 10.4618 15.5304 10.4618Z" fill="#2B2F36"/>
</svg>
