<?xml version="1.0" encoding="UTF-8"?>
<svg id="Layer_1" data-name="Layer 1" xmlns="http://www.w3.org/2000/svg" xmlns:xlink="http://www.w3.org/1999/xlink" version="1.1" viewBox="0 0 300 100">
  <defs>
    <style>
      .cls-1 {
        fill: none;
      }

      .cls-1, .cls-2, .cls-3, .cls-4, .cls-5, .cls-6, .cls-7, .cls-8, .cls-9, .cls-10 {
        stroke-width: 0px;
      }

      .cls-2 {
        fill: url(#linear-gradient);
      }

      .cls-11 {
        font-size: 28.58px;
      }

      .cls-11, .cls-3 {
        fill: #000;
      }

      .cls-11, .cls-12 {
        font-family: Dax-Bold, Dax;
        font-weight: 700;
      }

      .cls-4 {
        opacity: .98;
      }

      .cls-4, .cls-9 {
        fill: #fff;
      }

      .cls-12 {
        font-size: 46.33px;
      }

      .cls-12, .cls-10 {
        fill: #231f20;
      }

      .cls-5 {
        fill: url(#linear-gradient-4);
      }

      .cls-6 {
        fill: url(#linear-gradient-2);
      }

      .cls-7 {
        fill: url(#linear-gradient-3);
      }

      .cls-8 {
        fill: url(#linear-gradient-5);
      }

      .cls-13 {
        display: none;
      }
    </style>
    <linearGradient id="linear-gradient" x1="39.61" y1="81.55" x2="39.61" y2="18.45" gradientUnits="userSpaceOnUse">
      <stop offset=".03" stop-color="#1887c9"/>
      <stop offset="1" stop-color="#39449b"/>
    </linearGradient>
    <linearGradient id="linear-gradient-2" x1="360.57" y1="81.81" x2="360.57" y2="18.19" xlink:href="#linear-gradient"/>
    <linearGradient id="linear-gradient-3" x1="305.78" y1="146.58" x2="305.78" y2="131.72" xlink:href="#linear-gradient"/>
    <linearGradient id="linear-gradient-4" x1="184.39" y1="75.44" x2="184.39" y2="33.61" gradientUnits="userSpaceOnUse">
      <stop offset=".28" stop-color="#1887c9"/>
      <stop offset=".5" stop-color="#256cb6"/>
      <stop offset=".86" stop-color="#39449b"/>
    </linearGradient>
    <linearGradient id="linear-gradient-5" x1="43.24" y1="81.81" x2="43.24" y2="18.19" xlink:href="#linear-gradient"/>
  </defs>
  <g class="cls-13">
    <path class="cls-2" d="M39.61,18.45c-17.42,0-31.55,14.13-31.55,31.55s14.13,31.55,31.55,31.55,31.55-14.12,31.55-31.55-14.12-31.55-31.55-31.55ZM39.99,62.5v-7.85c.09.33.18.67.3.99.55,1.64,1.37,3.08,2.44,4.26.98,1.11,2.19,1.97,3.6,2.6h-6.34ZM66.56,51.96s-1.48,3.19-3.46,5.59c-1.64,1.96-3.69,3.6-6.1,4.54-4.4,1.71-10.54,1.05-13.79-2.6-1-1.13-1.78-2.48-2.31-4.05-.37-1.07-.61-2.25-.73-3.53l-.17-6.68c0-.95-.28-1.73-.84-2.38-.57-.63-1.47-.96-2.72-.96s-2.31.39-3.11,1.19v19.43h-7.13v-17.37c0-.97-.32-1.75-.98-2.35-.66-.59-1.6-.89-2.86-.89-.63,0-1.17.03-1.59.12s-.85.18-1.28.35v20.16h-7.13v-23.27c1.37-.6,2.84-1.06,4.39-1.36,1.56-.31,3.42-.46,5.58-.46,2.04,0,3.68.23,4.92.7,1.24.47,2.2,1.06,2.91,1.77.78-.67,1.84-1.25,3.13-1.74,1.29-.48,2.97-.73,5.01-.73,1.45,0,2.75.21,3.86.61.72.27,1.35.59,1.9.97.18.13.36.27.53.4.12.09.22.2.33.3.73.7,1.28,1.52,1.66,2.47.28.66.45,1.36.52,2.1-.54,1.21-.77,2.87-.67,4.99l.73-.12.63-.09,7.24-1.07c0-2.19-.36-3.8-1.05-4.8-.7-1-1.71-1.51-3.02-1.51-1.4,0-2.52.58-3.35,1.73-.1-.51-.24-.99-.44-1.47-.4-1.02-1.02-1.93-1.81-2.69-.08-.07-.16-.14-.23-.21.43-.28.89-.52,1.37-.73,1.39-.59,2.97-.89,4.73-.89,3.6,0,6.27,1.15,8.02,3.45,1.75,2.3,2.55,5.54,2.4,9.72l-13.86,1.97-.63.08-.27.05c.06.48.15.94.27,1.35,1.39,5.11,7.11,4.54,11.08,3.08,3.08-1.13,5.76-3.13,8.03-5.47h-3.37l6.48-4.92-2.5,14.86-.29-9.62Z"/>
  </g>
  <g class="cls-13">
    <circle class="cls-6" cx="360.57" cy="50" r="31.81"/>
    <path class="cls-9" d="M339.98,39.61l-8.12,20.63,6.56-10.17,1.11-1.73s0,.01,0,.03l.27-.42.37.22c1.07.65,4.09,2.48,4.25,2.56l-4.43-11.12Z"/>
    <g>
      <path class="cls-9" d="M361.63,51.32c-.45-.73-1.09-1.44-1.93-2.12-.84-.69-1.96-1.35-3.36-2-1.23-.56-2.19-1.14-2.88-1.74-.69-.6-1.03-1.44-1.03-2.5s.29-1.85.88-2.44c.59-.59,1.46-.88,2.61-.88.9,0,1.72.13,2.46.4.74.27,1.37.55,1.87.86l1.43-4.16c-.7-.48-1.61-.87-2.73-1.2-1.12-.32-2.47-.48-4.04-.48-1.4,0-2.67.24-3.81.71-1.14.48-2.1,1.11-2.9,1.91s-1.41,1.74-1.83,2.84-.63,2.24-.63,3.45c0,.7.09,1.42.27,2.14.18.73.49,1.44.92,2.15.43.7,1.02,1.37,1.77,2s1.67,1.2,2.8,1.7c1.49.65,2.53,1.29,3.13,1.93.6.65.9,1.43.9,2.35,0,1.04-.34,1.87-1.03,2.5-1.66,1.52-4.18,1.08-6.09.33-2.18-.86-4.12-2.32-5.6-4.13-2.24-2.73-2.81-5.6-2.98-6.86-.18.85-1.71,8.51,3.19,13.31,3.49,3.42,9.39,4.49,13.92,2.73,1.19-.46,2.21-1.09,3.07-1.89s1.52-1.75,2-2.86c.48-1.11.71-2.32.71-3.64,0-.73-.07-1.47-.21-2.21-.14-.74-.44-1.48-.88-2.21Z"/>
      <polygon class="cls-9" points="379.71 35.46 375.33 46.4 375.25 46.4 371.09 35.46 363.94 35.46 371.59 52.24 371.59 64.39 378.4 64.39 378.4 52.24 386.14 35.46 379.71 35.46"/>
    </g>
  </g>
  <g class="cls-13">
    <text class="cls-11" transform="translate(166.56 149.44)"><tspan x="0" y="0">SY</tspan></text>
    <path class="cls-3" d="M298.91,144h-.05l-2.83-7.43h-3.36l.2.07c.21.07.42.14.62.23.13.05.24.11.35.17l.11.06c1.75.89,3.05,2.31,3.64,3.99.5,1.44.42,2.81.15,3.92h0s-.01.03-.02.07c-.21.85-.52,1.54-.76,1.96-.02.06-.05.12-.08.17-.16.32-.33.59-.51.76v8.26h4.63v-8.26l5.26-11.4c-2.45,2.47-4.9,4.95-7.35,7.43Z"/>
    <path class="cls-3" d="M297.21,141.22c-.57-1.63-1.83-2.95-3.45-3.77-.14-.07-.27-.15-.43-.22-.22-.1-.45-.17-.69-.24-.09-.03-.17-.07-.27-.09-.03,0-.06-.01-.09-.02-.75-.21-1.56-.31-2.39-.3-.09,0-.18,0-.27,0-.02,0-.04,0-.07,0-.03,0-.06,0-.1,0,0,0,0,0,0,0-.89.02-1.7.17-2.43.48-.77.32-1.43.76-1.97,1.3s-.96,1.19-1.24,1.93-.43,1.52-.43,2.34c0,.48.06.96.19,1.46.12.5.33.98.63,1.46.3.48.7.93,1.2,1.36s1.14.81,1.9,1.16c1.01.44,1.72.88,2.13,1.31.41.44.61.97.61,1.6,0,.71-.23,1.27-.7,1.7s-1.11.64-1.93.64c-.69,0-1.31-.1-1.86-.3-.55-.2-.99-.4-1.31-.61l-1.06,3.23c.55.38,1.24.67,2.07.87.83.2,1.85.3,3.07.3.97,0,1.86-.16,2.67-.47.81-.31,1.5-.74,2.09-1.29s1.03-1.19,1.36-1.94c.32-.75.49-1.58.49-2.47,0-.5-.05-1-.14-1.5-.1-.5-.3-1-.6-1.5-.31-.5-.74-.98-1.31-1.44-.57-.47-1.33-.92-2.29-1.36-.84-.38-1.49-.78-1.96-1.19-.47-.41-.7-.98-.7-1.7s.2-1.26.6-1.66c.4-.4.99-.6,1.77-.6.58,0,1.11.09,1.59.25.72.25,1.95.81,2.98,2.02,1.8,2.13,1.62,4.64,1.57,5.16.25-.42,1.74-3.02.74-5.89Z"/>
    <path class="cls-7" d="M309.02,131.72l-2.51,14.86-.25-8.22-.04-1.4s0,.01-.01.02v-.34h-.3c-.85,0-3.25.01-3.37,0l6.48-4.92Z"/>
    <line class="cls-1" x1="305.71" y1="137.12" x2="295.93" y2="148.44"/>
    <g>
      <path class="cls-10" d="M191.4,192.49c0,1.08-.22,2.1-.65,3.06s-1.06,1.79-1.88,2.5-1.81,1.27-2.99,1.69c-1.17.42-2.5.63-3.98.63s-2.96-.17-4.24-.51-2.31-.77-3.08-1.3l1.85-4.59c.46.37,1.1.7,1.9,1s1.65.44,2.55.44,1.67-.25,2.24-.76c.57-.51.86-1.17.86-1.97s-.24-1.51-.72-2.04c-.48-.52-1.31-1.02-2.48-1.48-1.14-.46-2.08-.96-2.8-1.48-.73-.53-1.3-1.09-1.71-1.69s-.7-1.22-.86-1.85c-.15-.63-.23-1.27-.23-1.92,0-1.05.2-2.05.6-2.99.4-.94.97-1.76,1.69-2.46.73-.69,1.6-1.24,2.62-1.64,1.02-.4,2.16-.6,3.43-.6,1.58,0,2.92.15,4.03.44,1.11.29,2.16.75,3.15,1.37l-1.76,4.12c-.37-.31-.89-.6-1.56-.88s-1.41-.42-2.21-.42c-.95,0-1.66.25-2.14.76-.48.51-.71,1.12-.71,1.83,0,.83.28,1.51.85,2.02.57.51,1.34.98,2.33,1.41,1.2.53,2.18,1.06,2.95,1.6.77.54,1.37,1.11,1.8,1.71s.73,1.24.9,1.9c.17.67.25,1.37.25,2.11Z"/>
      <path class="cls-10" d="M205.16,209.91h-7.6l3.98-9.96-8.11-24.97h7.65l3.43,14.46c.12.53.22,1.04.3,1.53.08.49.13.91.16,1.25.03.43.05.82.05,1.16h.09c.03-.34.08-.73.14-1.16.06-.34.13-.76.21-1.25s.19-1,.35-1.53l3.8-14.46h6.76l-11.21,34.94Z"/>
    </g>
    <text class="cls-12" transform="translate(287.01 219.91)"><tspan x="0" y="0">sy</tspan></text>
  </g>
  <g>
    <path class="cls-5" d="M99.04,56.15c0,1.44-.26,2.76-.78,3.96-.52,1.21-1.25,2.25-2.18,3.12-.93.87-2.05,1.56-3.35,2.06-1.3.5-2.73.76-4.28.76-1.96,0-3.6-.16-4.93-.48-1.33-.32-2.44-.79-3.32-1.4l1.7-5.18c.52.34,1.22.66,2.11.98.89.32,1.88.48,2.98.48,1.31,0,2.34-.34,3.09-1.03.75-.69,1.12-1.6,1.12-2.73,0-1.01-.33-1.86-.99-2.57-.66-.7-1.79-1.4-3.41-2.11-1.22-.55-2.24-1.17-3.05-1.86-.81-.69-1.45-1.41-1.92-2.18-.47-.76-.81-1.54-1.01-2.34-.2-.79-.3-1.57-.3-2.34,0-1.31.23-2.57.69-3.76.46-1.19,1.12-2.22,1.99-3.09s1.92-1.57,3.16-2.09c1.24-.52,2.62-.78,4.15-.78,1.71,0,3.18.18,4.4.53,1.22.35,2.21.79,2.98,1.31l-1.56,4.54c-.55-.34-1.23-.65-2.04-.94-.81-.29-1.7-.44-2.68-.44-1.25,0-2.2.32-2.84.96-.64.64-.96,1.53-.96,2.66s.37,2.07,1.12,2.73c.75.66,1.79,1.29,3.14,1.9,1.53.7,2.75,1.43,3.67,2.18s1.62,1.52,2.11,2.31c.49.79.81,1.6.96,2.41.15.81.23,1.61.23,2.41ZM115.72,65.27c-.31.15-.76.31-1.37.46-.61.15-1.33.23-2.15.23-1.28,0-2.4-.19-3.35-.57-.95-.38-1.72-.9-2.31-1.56-.6-.66-1.04-1.42-1.33-2.29-.29-.87-.44-1.78-.44-2.73v-13.29h-2.7v-4.63h2.7v-5.27l7.15-1.83v7.1h3.8v4.63h-3.8v12.74c0,1.92.76,2.89,2.29,2.89.31,0,.56-.02.76-.07.2-.05.45-.11.76-.21v4.4ZM139.32,64.22c-1.04.55-2.38.99-4.01,1.33-1.63.34-3.52.5-5.66.5-7.21,0-10.81-2.6-10.81-7.79,0-1.59.37-2.92,1.1-3.99.73-1.07,1.73-1.94,3-2.61,1.27-.67,2.73-1.18,4.4-1.53s3.43-.62,5.29-.8v-1.15c0-1.28-.4-2.15-1.19-2.61-.8-.46-1.85-.69-3.16-.69-1.19,0-2.36.16-3.5.48-1.15.32-2.12.66-2.91,1.03l-1.56-4.08c.89-.37,2.11-.77,3.67-1.21,1.56-.44,3.44-.66,5.64-.66,1.4,0,2.7.16,3.87.48,1.17.32,2.2.83,3.07,1.53.87.7,1.55,1.63,2.04,2.77s.73,2.56.73,4.24v14.76ZM132.63,52.62c-1.07.09-2.05.24-2.93.46-.89.21-1.63.52-2.25.92-.61.4-1.08.92-1.42,1.56-.34.64-.5,1.45-.5,2.43,0,1.47.39,2.52,1.17,3.16.78.64,1.89.96,3.32.96,1.07,0,1.94-.17,2.61-.5v-8.98ZM156.64,45.57c-.89-.37-1.75-.55-2.59-.55s-1.57.14-2.18.41v20.16h-7.15v-23.33c1.37-.67,3.09-1.17,5.16-1.49s4.76-.4,8.09-.25l-1.33,5.04ZM173.6,65.27c-.31.15-.76.31-1.38.46-.61.15-1.33.23-2.15.23-1.28,0-2.4-.19-3.35-.57-.95-.38-1.72-.9-2.31-1.56-.6-.66-1.04-1.42-1.33-2.29-.29-.87-.44-1.78-.44-2.73v-13.29h-2.7v-4.63h2.7v-5.27l7.15-1.83v7.1h3.8v4.63h-3.8v12.74c0,1.92.76,2.89,2.29,2.89.31,0,.56-.02.76-.07.2-.05.45-.11.76-.21v4.4ZM183.31,55.74c.24,1.83.84,3.19,1.79,4.08.95.89,2.34,1.33,4.17,1.33,1.47,0,2.73-.14,3.8-.41s1.94-.58,2.61-.92l1.6,4.45c-.98.49-2.17.91-3.57,1.26-1.41.35-3.16.53-5.27.53-1.89,0-3.58-.3-5.06-.89-1.48-.6-2.73-1.46-3.73-2.59-1.01-1.13-1.78-2.48-2.31-4.06-.54-1.57-.8-3.35-.8-5.34s.24-3.67.73-5.25c.49-1.57,1.21-2.92,2.15-4.03.95-1.11,2.11-1.97,3.51-2.57,1.39-.6,2.97-.89,4.74-.89,3.6,0,6.29,1.15,8.04,3.46,1.76,2.31,2.56,5.55,2.41,9.74l-14.8,2.11ZM191.47,51.02c0-2.2-.35-3.8-1.05-4.81-.7-1.01-1.71-1.51-3.02-1.51-1.47,0-2.62.63-3.46,1.88-.84,1.25-1.2,3.16-1.08,5.73l8.61-1.28ZM214.56,45.57c-.89-.37-1.75-.55-2.59-.55s-1.57.14-2.18.41v20.16h-7.15v-23.33c1.37-.67,3.09-1.17,5.16-1.49s4.76-.4,8.09-.25l-1.33,5.04ZM228.63,75.44h-7.52l3.94-9.85-8.02-24.7h7.56l3.39,14.3c.12.52.22,1.02.3,1.51.08.49.13.9.16,1.24.03.43.05.81.05,1.15h.09c.03-.34.08-.72.14-1.15.06-.34.13-.75.21-1.24.08-.49.19-.99.34-1.51l3.76-14.3h6.69l-11.09,34.55ZM263.37,53.22c0,1.83-.24,3.54-.71,5.11-.47,1.57-1.17,2.93-2.09,4.08s-2.06,2.04-3.41,2.68c-1.36.64-2.93.96-4.7.96s-3.38-.32-4.74-.96-2.5-1.53-3.41-2.68-1.6-2.5-2.06-4.08c-.46-1.57-.69-3.28-.69-5.11s.23-3.54.69-5.11c.46-1.57,1.15-2.92,2.06-4.06.92-1.13,2.05-2.02,3.41-2.66,1.36-.64,2.93-.96,4.7-.96s3.38.32,4.74.96c1.36.64,2.5,1.53,3.41,2.66.92,1.13,1.61,2.48,2.09,4.06.47,1.57.71,3.28.71,5.11ZM256.31,53.15c0-1.1-.05-2.15-.16-3.15-.11-1-.3-1.88-.58-2.64-.28-.77-.67-1.37-1.16-1.82s-1.14-.67-1.95-.67-1.45.22-1.95.67-.88,1.05-1.16,1.82-.47,1.65-.58,2.64c-.11,1-.16,2.04-.16,3.15s.05,2.15.16,3.13c.11.98.3,1.84.58,2.57.28.74.66,1.32,1.16,1.75s1.14.64,1.95.64,1.45-.21,1.95-.64.88-1.01,1.16-1.75c.28-.73.47-1.59.58-2.57.11-.98.16-2.02.16-3.13ZM288.57,64.13c-1.16.58-2.59,1.05-4.29,1.4-1.7.35-3.7.53-6.03.53-3.51,0-6.12-.68-7.81-2.04-1.7-1.36-2.54-3.54-2.54-6.53v-16.59h7.15v17.09c0,.89.26,1.65.78,2.29.52.64,1.39.96,2.61.96s2.21-.2,2.98-.6v-19.75h7.15v23.23Z"/>
    <g>
      <circle class="cls-8" cx="43.24" cy="50" r="31.81"/>
      <circle class="cls-9" cx="43.35" cy="32.06" r="7.9"/>
      <path class="cls-4" d="M59.66,33.86h-4.69l-11.73,14.34c-3.85-4.78-7.71-9.56-11.56-14.34h-12.58c6.18,7.88,12.36,15.76,18.54,23.64v20.09h11v-20.04l18.73-23.69h-7.71Z"/>
    </g>
  </g>
</svg>