<svg width="11" height="9" viewBox="0 0 11 9" fill="none" xmlns="http://www.w3.org/2000/svg">
<path d="M10.9823 0.985281C10.6052 1.15289 10.2071 1.25765 9.7881 1.3205C10.2071 1.06909 10.5423 0.671014 10.689 0.189138C10.2909 0.419601 9.85096 0.587209 9.36908 0.691965C8.99196 0.293894 8.44723 0.0424805 7.8606 0.0424805C6.72924 0.0424805 5.80739 0.964329 5.80739 2.09569C5.80739 2.2633 5.82834 2.40996 5.87024 2.55661C4.1732 2.47281 2.64377 1.65572 1.61717 0.398649C1.44956 0.712916 1.3448 1.04813 1.3448 1.42525C1.3448 2.13759 1.70097 2.76613 2.26665 3.14325C1.93143 3.12229 1.61717 3.03849 1.32385 2.89183V2.91278C1.32385 3.91844 2.03619 4.75648 2.97899 4.94504C2.81138 4.98694 2.62282 5.00789 2.43426 5.00789C2.30855 5.00789 2.1619 4.98694 2.03619 4.96599C2.30855 5.78309 3.06279 6.39067 3.96369 6.39067C3.25135 6.9354 2.37141 7.27062 1.40766 7.27062C1.24005 7.27062 1.07244 7.27062 0.925781 7.24966C1.84763 7.8363 2.91614 8.17151 4.0894 8.17151C7.88155 8.17151 9.95571 5.02885 9.95571 2.3052C9.95571 2.2214 9.95571 2.11664 9.95571 2.03284C10.3538 1.76047 10.71 1.4043 10.9823 0.985281Z" fill="#090914"/>
</svg>
