<svg width="32" height="36" viewBox="0 0 32 36" fill="none" xmlns="http://www.w3.org/2000/svg">
<path d="M19.5766 29.0784H11.9349C5.01923 29.0784 2.06445 26.1237 2.06445 19.208V11.5663C2.06445 4.65058 5.01923 1.6958 11.9349 1.6958H18.303C18.8252 1.6958 19.2582 2.12883 19.2582 2.65101C19.2582 3.17319 18.8252 3.60622 18.303 3.60622H11.9349C6.06359 3.60622 3.97487 5.69494 3.97487 11.5663V19.208C3.97487 25.0793 6.06359 27.168 11.9349 27.168H19.5766C25.448 27.168 27.5367 25.0793 27.5367 19.208V12.8399C27.5367 12.3177 27.9697 11.8847 28.4919 11.8847C29.0141 11.8847 29.4471 12.3177 29.4471 12.8399V19.208C29.4471 26.1237 26.4923 29.0784 19.5766 29.0784Z" fill="#1F2329"/>
<path d="M28.4918 13.7947H23.3973C19.0416 13.7947 17.3477 12.1008 17.3477 7.74504V2.65059C17.3477 2.26851 17.5769 1.9119 17.9335 1.7718C18.2901 1.61897 18.6977 1.70812 18.9779 1.97558L29.1668 12.1645C29.4342 12.4319 29.5234 12.8522 29.3705 13.2088C29.2177 13.5654 28.8738 13.7947 28.4918 13.7947ZM19.2581 4.95583V7.74504C19.2581 11.031 20.1114 11.8843 23.3973 11.8843H26.1865L19.2581 4.95583Z" fill="#1F2329"/>
<path d="M17.0305 17.6155H9.3888C8.86662 17.6155 8.43359 17.1825 8.43359 16.6603C8.43359 16.1381 8.86662 15.7051 9.3888 15.7051H17.0305C17.5526 15.7051 17.9857 16.1381 17.9857 16.6603C17.9857 17.1825 17.5526 17.6155 17.0305 17.6155Z" fill="#1F2329"/>
<path d="M14.4832 22.7107H9.3888C8.86662 22.7107 8.43359 22.2777 8.43359 21.7555C8.43359 21.2333 8.86662 20.8003 9.3888 20.8003H14.4832C15.0054 20.8003 15.4385 21.2333 15.4385 21.7555C15.4385 22.2777 15.0054 22.7107 14.4832 22.7107Z" fill="#1F2329"/>
</svg>
